 <svg
                      xmlns="http://www.w3.org/2000/svg"
                      width="24"
                      height="24"
                      viewBox="0 0 24 24"
                      fill="none"
                    >
                      <path
                        d="M19.5409 19.2027C19.1984 18.4666 18.3698 18.135 17.5512 18.4177C16.2305 18.8737 14.9125 19.3375 13.5691 19.8065C13.8048 18.5448 12.8554 17.8146 11.9006 17.8862C11.3464 17.9279 10.7849 17.8745 10.2281 17.8986C9.46957 17.9318 8.82526 17.7077 8.21833 17.2583C7.06324 16.403 5.75592 16.1249 4.33109 16.4434C3.82031 16.5574 3.34425 16.7645 2.85217 17.0108C2.85217 16.8538 2.85551 16.7261 2.8515 16.5984C2.83948 16.1692 2.56774 15.9054 2.12707 15.9021C1.65235 15.8982 1.17829 15.8982 0.70357 15.9021C0.274918 15.906 0.00317149 16.1666 0.00250381 16.5887C-0.000834603 18.6757 -0.000834603 20.7627 0.00250381 22.8491C0.00317149 23.249 0.25155 23.5096 0.664177 23.5239C1.17095 23.5415 1.67972 23.5415 2.18716 23.5239C2.59511 23.5103 2.85951 23.2432 2.84683 22.8484C2.83948 22.6068 2.92428 22.5762 3.14328 22.5918C4.24829 22.6687 5.30457 22.9377 6.33213 23.3266C7.79903 23.8822 9.312 24.1121 10.8797 23.948C12.1002 23.8203 13.2714 23.4829 14.4325 23.1136C16.0002 22.6146 17.4964 21.9613 18.9046 21.1216C19.6123 20.7015 19.8694 19.9088 19.5409 19.2027ZM2.26795 19.7205C2.26795 20.7191 2.26261 21.7176 2.27262 22.7162C2.27463 22.9221 2.20786 22.9813 2.00288 22.9729C1.62898 22.9579 1.25307 22.9546 0.879837 22.9735C0.642142 22.9852 0.56803 22.9175 0.569365 22.6784C0.580048 21.0708 0.574706 19.4639 0.574706 17.8562C0.574706 17.483 0.584054 17.1091 0.5707 16.7359C0.564023 16.5411 0.6141 16.4603 0.831764 16.4695C1.22236 16.4857 1.61429 16.4844 2.00488 16.4701C2.20853 16.4623 2.27463 16.5177 2.27262 16.7248C2.26127 17.7234 2.26795 18.7219 2.26795 19.7205ZM18.5854 20.6481C16.2986 21.9912 13.8335 22.8862 11.2095 23.3357C9.56571 23.6171 7.96729 23.3507 6.4176 22.7579C5.32927 22.3417 4.20489 22.0596 3.0271 22.0316C2.88222 22.0284 2.84816 21.9821 2.8495 21.8479C2.85551 21.1659 2.85217 20.4833 2.85217 19.8013C2.85217 19.1597 2.85751 18.5181 2.84817 17.8764C2.84616 17.7286 2.88956 17.6452 3.02109 17.569C4.73637 16.5776 6.45298 16.6636 8.04874 17.8335C8.6136 18.2477 9.23788 18.4633 9.94896 18.4536C10.64 18.4438 11.3311 18.4438 12.0221 18.4536C12.7265 18.4633 13.1792 19.0209 12.9983 19.6365C12.8841 20.0247 12.5008 20.2931 12.0261 20.2976C11.277 20.3041 10.5272 20.2996 9.77804 20.2996C9.20383 20.2996 8.62896 20.2983 8.05475 20.3002C7.78834 20.3015 7.63945 20.4097 7.65615 20.596C7.67751 20.8246 7.83976 20.8735 8.04674 20.8735C9.35406 20.8702 10.6614 20.8708 11.968 20.8728C12.187 20.8728 12.4014 20.8441 12.603 20.7666C13.907 20.2631 15.2397 19.8371 16.555 19.3635C16.9596 19.2176 17.3649 19.0724 17.7729 18.9369C18.2823 18.7669 18.7951 18.9779 19.0061 19.4332C19.2151 19.8847 19.0495 20.3758 18.5854 20.6481Z"
                        fill="#666666"
                      />
                      <path
                        d="M16.7485 17.7542C16.7491 16.3166 16.7498 14.879 16.7485 13.4414C16.7478 12.6031 16.243 12.1106 15.3844 12.11C14.019 12.1087 12.6536 12.11 11.2875 12.11C9.89669 12.11 8.50658 12.1087 7.1158 12.1106C6.30724 12.1119 5.79579 12.6128 5.79045 13.4049C5.78778 13.827 5.78978 14.2497 5.78978 14.6718C5.78978 14.9558 5.78645 15.2405 5.79446 15.5245C5.7998 15.7004 5.91798 15.7961 6.08623 15.7916C6.24114 15.7877 6.34796 15.6939 6.35931 15.5291C6.36399 15.4646 6.36266 15.3994 6.36266 15.3343C6.36266 14.6842 6.35798 14.0348 6.36466 13.3847C6.36933 12.9424 6.63173 12.6858 7.07841 12.6832C7.87762 12.6786 8.67684 12.6851 9.47605 12.6786C9.61894 12.6773 9.65499 12.7183 9.65366 12.8545C9.64632 13.431 9.64832 14.0081 9.65165 14.5846C9.65299 14.905 9.83794 15.019 10.1424 14.8888C10.4689 14.7487 10.7961 14.6093 11.1152 14.4543C11.2634 14.382 11.3836 14.3768 11.5312 14.4575C11.8056 14.608 12.0914 14.7396 12.3745 14.8751C12.7003 15.0308 12.8939 14.9168 12.8959 14.5676C12.8986 14.0152 12.9073 13.4629 12.8913 12.9105C12.8852 12.7092 12.9553 12.6767 13.1396 12.6786C13.8721 12.6884 14.6052 12.6825 15.3376 12.6825C15.9526 12.6832 16.1803 12.9046 16.1809 13.5039C16.1816 14.9089 16.1809 16.314 16.1816 17.7197C16.1816 17.7926 16.1809 17.8662 16.1869 17.9385C16.1996 18.0831 16.3004 18.158 16.4326 18.173C16.5809 18.19 16.691 18.1118 16.7358 17.9724C16.7565 17.9047 16.7485 17.8271 16.7485 17.7542ZM12.3057 14.2048C12.0967 14.1032 11.8984 14.0263 11.7221 13.9162C11.4644 13.754 11.2274 13.7482 10.9596 13.9C10.7413 14.0244 10.4989 14.109 10.2359 14.2256C10.2359 13.7208 10.2379 13.2525 10.2345 12.7841C10.2339 12.6884 10.2866 12.6838 10.3601 12.6838C10.967 12.6851 11.5739 12.6877 12.1808 12.6819C12.3077 12.6806 12.307 12.7437 12.3064 12.8323C12.3044 13.2779 12.3057 13.7234 12.3057 14.2048Z"
                        fill="#666666"
                      />
                      <path
                        d="M7.07531 8.25761C6.30881 8.25761 5.70056 7.6655 5.69922 6.91771C5.69789 6.16992 6.30481 5.57065 7.06663 5.5674C7.84448 5.56414 8.45875 6.16276 8.45608 6.92097C8.45341 7.66745 7.84382 8.25761 7.07531 8.25761Z"
                        fill="#666666"
                      />
                      <path
                        d="M23.6026 0.00195831C20.588 0.00130693 17.574 0.00391246 14.5601 4.16668e-06C13.6888 -0.0012986 12.9597 0.302897 12.3514 0.90738C11.7852 1.46952 11.2077 2.01994 10.6422 2.58274C10.528 2.69608 10.4145 2.74102 10.2523 2.74037C8.55367 2.73516 6.85508 2.73711 5.1565 2.73711C4.45209 2.73711 4.11358 3.06411 4.11358 3.74741C4.11291 5.84291 4.11358 7.9384 4.11358 10.0339C4.11358 10.7836 4.4354 11.0976 5.20591 11.0976C7.45399 11.0983 9.70208 11.0976 11.9502 11.0976C14.2149 11.0976 16.4797 11.0983 18.7445 11.097C19.4436 11.0963 19.7834 10.7621 19.7834 10.0782C19.7841 8.84383 19.7861 7.6088 19.7801 6.37443C19.7794 6.21615 19.8074 6.13473 19.9857 6.08392C20.379 5.97058 20.7335 5.76995 21.0373 5.49767C21.1441 5.40192 21.2523 5.37196 21.3932 5.37261C22.1343 5.37847 22.8754 5.37652 23.6166 5.37521C23.9124 5.37456 23.9992 5.28988 23.9992 4.99611C24.0005 3.4608 24.0005 1.92614 23.9992 0.390834C23.9985 0.0781701 23.9224 0.00195831 23.6026 0.00195831ZM19.1952 10.1375C19.1952 10.4293 19.0904 10.5335 18.7919 10.5342C14.2296 10.5348 9.66803 10.5348 5.10575 10.5342C4.8053 10.5342 4.70181 10.4325 4.70181 10.1394C4.70047 7.99573 4.70114 5.85137 4.70181 3.70767C4.70181 3.37873 4.79595 3.296 5.16585 3.29535C6.83906 3.2947 8.51227 3.2947 10.1855 3.2947C11.7672 3.2947 13.349 3.2947 14.9307 3.2947C14.9627 3.2947 14.9941 3.29795 15.0943 3.30317C14.5281 3.85619 13.9993 4.37013 13.4738 4.88733C13.357 5.00262 13.2942 4.88277 13.2214 4.84043C11.8527 4.04183 10.1107 4.66325 9.59258 6.13733C9.19531 7.26813 9.72411 8.53963 10.8124 9.07181C11.9335 9.62027 13.2755 9.29328 13.9759 8.29276C14.0861 8.13577 14.1929 8.00289 14.3892 7.93645C14.5615 7.87782 14.6943 7.74494 14.8245 7.61727C15.4769 6.97892 16.1339 6.34447 16.7822 5.70221C16.8984 5.58691 16.9678 5.55044 17.1234 5.66508C17.6715 6.06698 18.3018 6.25653 18.9869 6.24611C19.1658 6.24351 19.2012 6.29041 19.1999 6.45781C19.1925 7.68502 19.1965 8.91157 19.1952 10.1375ZM12.3241 7.1105C12.4783 7.629 12.8609 7.93254 13.403 8.07845C12.6105 9.1604 10.8311 8.94414 10.2302 7.71237C9.88369 7.00302 10.0339 6.15622 10.6061 5.60124C11.1783 5.04626 12.0503 4.90426 12.7721 5.24038C12.947 5.3218 12.9931 5.38108 12.8235 5.53089C12.3394 5.95755 12.1378 6.48582 12.3241 7.1105ZM20.6113 5.12248C19.6452 5.88785 18.2337 5.86896 17.2809 5.07297C16.9524 4.79874 16.9057 4.79939 16.6026 5.09512C15.8608 5.81815 15.1237 6.54575 14.3759 7.26357C13.8664 7.75211 13.0572 7.56972 12.8769 6.92811C12.7734 6.55747 12.9029 6.24611 13.178 5.97904C14.0747 5.10815 14.9681 4.23464 15.8621 3.36179C15.9209 3.30447 15.9856 3.2504 16.033 3.18461C16.1726 2.99115 16.0644 2.76577 15.8207 2.73972C15.7466 2.7319 15.6712 2.73646 15.5964 2.73646C14.1982 2.73581 12.8001 2.73581 11.4013 2.73516C11.3933 2.73516 11.386 2.73255 11.3132 2.72083C11.9662 2.11895 12.5177 1.4806 13.1847 0.954931C13.2041 0.939949 13.2268 0.929527 13.2481 0.916499C13.6528 0.664414 14.0994 0.561496 14.5748 0.561496C16.5638 0.560845 18.5535 0.564753 20.5426 0.556285C20.7516 0.555633 20.7843 0.623377 20.7836 0.804462C20.7763 2.12807 20.7763 3.45103 20.7843 4.77464C20.7836 4.93162 20.7295 5.02868 20.6113 5.12248ZM23.429 4.62482C23.4296 4.7792 23.3782 4.81633 23.2287 4.81372C22.6718 4.8059 22.1143 4.80265 21.5574 4.81502C21.3712 4.81893 21.3425 4.75184 21.3445 4.5916C21.3531 3.95911 21.3478 3.32662 21.3478 2.69347C21.3478 2.05251 21.3545 1.41155 21.3438 0.771241C21.3411 0.597973 21.3932 0.553679 21.5668 0.556936C22.1156 0.567358 22.6645 0.566056 23.2133 0.557588C23.3689 0.554982 23.4303 0.585597 23.4296 0.754957C23.4223 2.04535 23.4229 3.33508 23.429 4.62482Z"
                        fill="#666666"
                      />
                    </svg>