<svg width="60" height="60" viewBox="0 0 60 60" fill="none" xmlns="http://www.w3.org/2000/svg">
<path d="M48.1255 28.4922C49.8166 28.4895 51.5077 28.4908 53.1987 28.4908C54.0429 28.4908 54.0429 28.4908 54.1501 29.32C54.2139 29.814 54.522 30.1356 54.9902 30.1967C55.4924 30.2618 55.791 30.0773 55.9986 29.5724C55.9986 28.7935 55.9986 28.0159 55.9986 27.2369C55.9159 27.0171 55.8046 26.8189 55.6458 26.6357C54.9821 25.8704 54.2804 25.1403 53.6032 24.3871C51.9786 22.5795 50.3242 20.799 48.7091 18.9833C48.1242 18.3264 47.4021 17.7728 47.1022 16.8676C46.4019 14.7506 45.6106 12.6648 44.8696 10.5627C44.3186 9.00204 43.7485 7.44685 43.2043 5.88487C43.0618 5.47775 42.8636 5.10863 42.3913 5.00006C42.2217 5.00006 42.0534 5.00006 41.8837 5.00006C41.5159 5.18869 41.3313 5.50896 41.197 5.88894C39.8764 9.6073 38.5437 13.3216 37.2258 17.0399C37.1037 17.3833 36.9326 17.6723 36.6884 17.941C34.0092 20.8791 31.3369 23.8239 28.6605 26.7647C28.4501 26.9954 28.2723 27.2301 28.2737 27.5613C28.2764 28.1367 28.2615 28.712 28.2805 29.2874C28.2968 29.7773 28.6564 30.1139 29.126 30.118C29.5915 30.122 29.9539 29.7909 29.996 29.3051C30.0136 29.1029 30.0163 28.898 29.9987 28.6971C29.9756 28.4461 30.0788 28.385 30.3176 28.385C32.4159 28.3931 34.5155 28.3931 36.6137 28.385C36.8607 28.3836 36.9381 28.4651 36.9313 28.7053C36.9177 29.2128 36.9123 29.7217 36.9327 30.2279C36.9435 30.5047 36.8594 30.6974 36.6503 30.882C35.8007 31.6325 34.9688 32.4033 34.1246 33.1592C32.3602 34.7401 30.5904 36.3143 28.8288 37.898C28.5831 38.1192 28.2832 38.3282 28.2791 38.7123C28.271 39.3379 28.2588 39.9648 28.2846 40.5904C28.3036 41.0559 28.6619 41.3708 29.1138 41.3802C29.563 41.3911 29.9295 41.0871 29.9919 40.6352C30.015 40.4683 30.0204 40.2946 29.9987 40.129C29.9512 39.7681 30.0503 39.6378 30.4547 39.6432C32.4512 39.6676 34.449 39.6676 36.4454 39.6432C36.8662 39.6378 36.9354 39.7776 36.934 40.1562C36.9218 44.3196 36.9259 48.4831 36.9259 52.6452C36.9259 53.4066 36.9272 54.1679 36.9245 54.9305C36.9245 55.092 36.9761 55.2739 36.6938 55.2671C36.0627 55.2535 35.4302 55.263 34.8086 55.263C34.7978 55.187 34.7883 55.1667 34.7937 55.1545C36.1699 52.3345 33.8084 49.6977 31.3898 50.098C31.1781 50.1333 31.1048 50.0356 31.0098 49.87C29.958 48.0244 27.8163 47.791 26.4035 49.3679C26.2827 49.5023 26.1945 49.5796 25.9854 49.5484C24.5237 49.3286 23.3321 50.151 23.0376 51.5894C22.986 51.8446 22.8978 51.9857 22.6685 52.1201C21.7211 52.6737 21.2814 53.5178 21.3574 54.6171C21.3723 54.8247 21.4171 55.031 21.451 55.263C20.3327 55.263 19.251 55.2549 18.1693 55.2684C17.9101 55.2712 17.8599 55.1735 17.8667 54.9441C17.8802 54.4705 17.8857 53.9955 17.8639 53.5233C17.8232 52.6385 17.3075 51.9911 16.4633 51.8378C16.1634 51.7835 16.124 51.6695 16.1267 51.4157C16.1376 50.5703 16.1607 49.7221 16.1199 48.878C16.0982 48.4221 16.2339 48.3216 16.6778 48.3257C19.4369 48.3474 22.1948 48.3366 24.954 48.3366C25.6855 48.3366 26.2813 48.0787 26.6423 47.4178C26.9803 46.7976 26.9151 46.1829 26.5433 45.5926C23.1109 40.1494 19.6772 34.7076 16.2448 29.2644C15.8919 28.7053 15.3857 28.3999 14.7302 28.3972C11.7348 28.3877 8.73811 28.3809 5.74277 28.3999C4.8443 28.4054 4.17927 29.0052 4.0259 29.8398C3.92411 30.3948 4.14398 30.8616 4.43035 31.3163C6.52451 34.6289 8.61461 37.9428 10.7033 41.2581C10.8092 41.4264 10.93 41.5811 10.93 41.8064C10.9246 45.0389 10.9246 48.2714 10.9286 51.5039C10.9286 51.6994 10.8906 51.7794 10.6653 51.8256C9.70715 52.0237 9.20635 52.6724 9.19549 53.663C9.19142 54.0525 9.16835 54.4434 9.20228 54.8301C9.23349 55.1925 9.10998 55.2766 8.75711 55.2712C7.47184 55.2494 6.18521 55.263 4.89858 55.263C4.47649 55.263 4.19012 55.4734 4.05169 55.8628C3.92411 56.2211 4.04083 56.5278 4.31227 56.7775C4.55792 57.0041 4.86466 56.9933 5.17274 56.9933C21.7252 56.9919 38.279 56.9906 54.8314 57.0001C55.3608 57.0001 55.7462 56.8481 55.9986 56.3826C55.9986 56.213 55.9986 56.0447 55.9986 55.8751C55.8873 55.301 55.4761 55.1341 54.9604 55.1124C54.7405 55.1029 54.5206 55.1056 54.3008 55.1056C52.2555 55.1042 50.2102 55.1097 48.1649 55.1029C47.5813 55.1015 47.5297 55.0472 47.5283 54.4596C47.5243 49.794 47.5243 45.1285 47.5283 40.4642C47.5283 39.8278 47.5718 39.7911 48.2354 39.7898C49.8749 39.7871 51.5144 39.7884 53.1553 39.7884C53.9995 39.7884 53.9995 39.7884 54.1393 40.6189C54.2221 41.1129 54.5315 41.4237 54.9984 41.4834C55.4992 41.5458 55.7828 41.3653 56 40.8469C56 40.1019 56 39.3582 56 38.6132C55.9484 38.2644 55.7584 37.9998 55.5019 37.7664C54.7134 37.0512 53.9194 36.3415 53.1254 35.6331C51.5619 34.238 50.0487 32.7832 48.4309 31.4547C47.6261 30.7938 47.4157 30.0732 47.4944 29.1273C47.5446 28.518 47.5243 28.4936 48.1255 28.4922ZM36.6897 37.9211C34.9742 37.917 33.2587 37.9184 31.4021 37.9184C33.2913 36.2193 35.0665 34.6221 36.9231 32.9515C36.9231 34.6017 36.9204 36.1461 36.9259 37.6904C36.9272 37.8695 36.8621 37.9211 36.6897 37.9211ZM21.9559 41.5472C22.9928 43.2041 24.0379 44.8557 25.1372 46.5995C22.5314 46.5995 20.0314 46.533 17.5369 46.6307C16.4701 46.6728 15.858 46.3661 15.3558 45.4284C14.6813 44.1677 13.8466 42.9924 13.0866 41.7765C13.0214 41.6734 12.8545 41.5648 12.9699 41.4318C13.0255 41.368 13.187 41.3884 13.2997 41.387C16.0385 41.3857 18.7774 41.3857 21.5148 41.3857C21.6818 41.387 21.8406 41.3626 21.9559 41.5472ZM14.4017 51.4076C14.4058 51.7157 14.3257 51.8052 14.0081 51.8079C12.6591 51.8188 12.6591 51.831 12.6591 50.4889C12.6591 48.5103 12.6591 46.5317 12.6591 44.5531C12.6903 44.5354 12.7215 44.5191 12.7514 44.5015C13.2861 45.351 13.8249 46.1978 14.3501 47.0528C14.4058 47.1437 14.3922 47.2835 14.3922 47.4002C14.3963 48.7355 14.3854 50.0722 14.4017 51.4076ZM7.69714 33.2514C7.07554 32.2323 6.43086 31.228 5.73598 30.1261C7.05382 30.1261 8.25088 30.1261 9.44657 30.1261C11.0684 30.1261 12.6903 30.1343 14.3121 30.1193C14.6162 30.1166 14.8021 30.1994 14.9636 30.4654C15.5906 31.4967 16.2421 32.5118 16.9261 33.6029C16.3208 33.6029 15.8037 33.6029 15.2866 33.6029C12.9712 33.6029 10.6572 33.5975 8.34181 33.6097C8.03372 33.6111 7.85729 33.5133 7.69714 33.2514ZM9.06656 35.4051C9.24299 35.2938 9.39636 35.3386 9.54022 35.3386C12.2126 35.3359 14.8849 35.3427 17.5572 35.3277C17.9019 35.3264 18.1028 35.4254 18.2833 35.724C19.0026 36.906 19.7532 38.0704 20.4874 39.2429C20.5553 39.3514 20.6733 39.441 20.6543 39.5998C20.5173 39.6961 20.3626 39.6486 20.2201 39.6486C17.5477 39.6527 14.8754 39.6446 12.2031 39.6595C11.8529 39.6608 11.6642 39.5482 11.4837 39.2524C10.6952 37.9632 9.87816 36.6902 9.06656 35.4051ZM16.067 55.1707C15.839 55.453 15.2432 55.2427 14.8089 55.2589C14.3705 55.2739 13.9308 55.2617 13.491 55.2617C12.7473 55.2617 12.0049 55.2508 11.2612 55.2671C10.9951 55.2725 10.9259 55.1897 10.9191 54.9251C10.8784 53.53 10.8703 53.53 12.2804 53.53C13.4463 53.53 14.6121 53.5395 15.7766 53.5233C16.0684 53.5192 16.1552 53.6047 16.1376 53.891C16.1091 54.328 16.2842 54.902 16.067 55.1707ZM33.3564 54.1149C33.085 54.8396 32.4566 55.2576 31.6219 55.2603C30.3719 55.263 29.1206 55.2617 27.8706 55.2617C26.603 55.2617 25.3353 55.2644 24.0677 55.2603C23.4583 55.2589 23.1163 54.9807 23.081 54.4786C23.0417 53.9195 23.3213 53.6142 23.9483 53.5287C24.6147 53.4391 24.9092 53.0266 24.7599 52.3535C24.6662 51.9274 24.7531 51.5745 25.1236 51.3343C25.4738 51.1077 25.7778 51.2339 26.0927 51.4727C26.6586 51.9002 27.2531 51.6912 27.4852 51.0168C27.7295 50.3111 28.1095 50.0112 28.6727 50.0817C29.2332 50.1537 29.5576 50.5906 29.5997 51.3302C29.6404 52.0685 30.3 52.4824 30.9135 52.0916C31.6328 51.6329 32.367 51.7822 32.8746 52.2246C33.4121 52.6941 33.6034 53.4554 33.3564 54.1149ZM36.6951 26.6575C34.8751 26.6507 33.0538 26.6547 31.1035 26.6547C33.0755 24.4848 34.9566 22.4166 36.9245 20.2508C36.9245 20.78 36.9245 21.1926 36.9245 21.6051C36.9245 23.1603 36.9272 24.7155 36.9204 26.2693C36.9191 26.4254 37.0263 26.6588 36.6951 26.6575ZM39.4516 43.0847C40.3487 41.7372 41.2255 40.4181 42.1321 39.0556C43.0333 40.4059 43.906 41.7168 44.818 43.0847C43.0129 43.0847 41.2743 43.0847 39.4516 43.0847ZM44.7542 44.895C43.8747 46.1286 43.0197 47.3255 42.1348 48.5659C41.2594 47.3418 40.4044 46.1463 39.5086 44.895C41.2771 44.895 42.9722 44.895 44.7542 44.895ZM39.4367 31.8849C41.254 31.8849 42.9912 31.8849 44.8288 31.8849C43.9141 33.2596 43.0455 34.5637 42.1348 35.9316C41.2296 34.5746 40.3501 33.2555 39.4367 31.8849ZM39.434 30.1112C40.3487 28.7378 41.2282 27.4161 42.1321 26.0576C43.0333 27.4106 43.9073 28.7229 44.8329 30.1112C42.9953 30.1112 41.2608 30.1112 39.434 30.1112ZM39.4476 18.9059C41.254 18.9059 42.998 18.9059 44.8139 18.9059C43.9182 20.2521 43.0441 21.5671 42.1321 22.9364C41.2228 21.5698 40.3542 20.2657 39.4476 18.9059ZM43.2952 24.6829C43.2097 24.5554 43.1934 24.4604 43.2857 24.3233C44.0281 23.2227 44.761 22.1154 45.5645 20.9076C45.5645 23.334 45.5645 25.6397 45.5645 28.0824C44.7691 26.8895 44.0349 25.7849 43.2952 24.6829ZM42.1321 8.44565C43.1826 11.3864 44.195 14.2227 45.2224 17.0983C43.1609 17.0983 41.14 17.0983 39.0404 17.0983C40.0678 14.224 41.0816 11.3878 42.1321 8.44565ZM38.6821 20.8913C39.282 21.7856 39.8126 22.5768 40.3419 23.3679C41.0952 24.4957 41.0952 24.4957 40.3433 25.622C39.8276 26.3942 39.3132 27.1664 38.7947 27.9372C38.7812 27.9575 38.7377 27.9589 38.6821 27.9779C38.6821 25.6546 38.6821 23.3394 38.6821 20.8913ZM38.6821 33.8852C39.3213 34.8392 39.8886 35.6874 40.4559 36.5355C41.0952 37.4923 41.0952 37.4936 40.4546 38.4517C39.8873 39.2999 39.32 40.148 38.6821 41.1021C38.6821 38.658 38.6821 36.351 38.6821 33.8852ZM38.6685 53.2437C38.6685 51.1172 38.6685 48.9907 38.6685 46.856C38.8721 46.8424 38.8992 47.0311 38.9766 47.1383C39.6118 48.0136 40.2402 48.8943 40.8645 49.7764C40.9527 49.9013 41.1142 50.0044 40.9663 50.2093C40.2239 51.2325 39.4923 52.2625 38.7567 53.2898C38.7269 53.2736 38.697 53.2586 38.6685 53.2437ZM39.4991 55.2372C40.3935 53.986 41.2499 52.785 42.1321 51.5501C43.0156 52.7864 43.872 53.986 44.7651 55.2372C42.9871 55.2372 41.2811 55.2372 39.4991 55.2372ZM45.5753 53.3835C44.7705 52.2585 44.0376 51.2312 43.3006 50.208C43.2178 50.0926 43.2287 50.0085 43.3088 49.8972C44.0458 48.8753 44.7773 47.8494 45.5753 46.7339C45.5753 48.9785 45.5753 51.1077 45.5753 53.3835ZM45.5821 40.9473C45.4491 41.0138 45.4274 40.8713 45.3799 40.8021C44.704 39.7952 44.0335 38.7828 43.3576 37.7759C43.2518 37.6185 43.1595 37.495 43.3006 37.2873C44.0322 36.2153 44.7461 35.1323 45.4681 34.0548C45.4803 34.0358 45.5265 34.0385 45.5807 34.025C45.5821 36.3333 45.5821 38.6363 45.5821 40.9473ZM52.8689 37.9184C51.5891 37.9184 50.449 37.9184 49.3076 37.9184C48.7498 37.9184 48.192 37.917 47.6342 37.9184C47.4781 37.9184 47.3356 37.9374 47.337 37.6985C47.3438 36.1515 47.341 34.6058 47.341 32.9474C49.2045 34.6234 50.9851 36.2248 52.8689 37.9184ZM47.337 26.367C47.3438 24.3749 47.341 22.3813 47.341 20.2508C49.3036 22.4085 51.1887 24.4807 53.1662 26.6547C51.2281 26.6547 49.4244 26.6507 47.6193 26.6588C47.3926 26.6602 47.3356 26.5828 47.337 26.367Z" fill="#D21591"/>
<path d="M35.142 11.9292C34.9913 11.9143 34.838 11.9238 34.686 11.9238C28.0357 11.9238 21.384 11.9224 14.7337 11.9292C14.3999 11.9292 14.2085 11.86 14.0348 11.5248C13.5313 10.5559 12.4197 10.0456 11.3909 10.2342C10.2251 10.4486 9.42979 11.2534 9.22892 12.4205C9.05249 13.4423 9.58179 14.5388 10.5563 15.0477C10.8657 15.2092 10.9336 15.3938 10.9322 15.7127C10.9214 18.8258 10.9254 21.9389 10.9254 25.0534C10.9254 25.3071 10.9105 25.5623 10.9336 25.8147C10.9838 26.3575 11.3733 26.6886 11.8863 26.6439C12.3939 26.6004 12.6572 26.2503 12.6572 25.5894C12.6599 22.2904 12.6626 18.99 12.6531 15.691C12.6518 15.3911 12.7006 15.1997 13.0114 15.0654C13.4905 14.8605 13.857 14.49 14.066 14.0137C14.199 13.7097 14.3822 13.6486 14.6876 13.65C18.0725 13.6608 21.4573 13.6567 24.8408 13.6567C26.3297 13.6567 27.8199 13.6567 29.3087 13.6567C31.2373 13.6567 33.1673 13.6622 35.0959 13.6513C35.6374 13.6486 35.978 13.308 35.9902 12.8194C36.0038 12.339 35.6645 11.9781 35.142 11.9292ZM11.7886 13.6513C11.3054 13.6459 10.9132 13.2442 10.9309 12.7733C10.9485 12.3065 11.376 11.9075 11.8375 11.9278C12.2935 11.9482 12.6531 12.3309 12.6545 12.795C12.6559 13.2917 12.2853 13.6581 11.7886 13.6513Z" fill="#D21591"/>
</svg>
