<svg width="60" height="60" viewBox="0 0 60 60" fill="none" xmlns="http://www.w3.org/2000/svg">
<path d="M54.9785 54.9763C55.1482 54.8066 55.3165 54.6383 55.4862 54.4686C55.5771 54.8976 55.4074 55.0672 54.9785 54.9763Z" fill="#F8F8F8"/>
<path d="M29.4834 37.5139C24.104 37.5139 18.7247 37.5139 13.3453 37.5139C11.8919 37.5139 11.2269 36.857 11.2269 35.4209C11.2269 33.7459 11.2255 32.0709 11.2283 30.396C11.2296 29.7757 11.5268 29.4119 12.0113 29.4282C12.4768 29.4445 12.7495 29.7933 12.7495 30.3905C12.7522 32.0818 12.759 33.7744 12.7441 35.4657C12.74 35.8553 12.8527 35.9991 13.2611 35.9991C24.0878 35.9896 34.913 35.9896 45.7397 35.9991C46.1509 35.9991 46.2554 35.8525 46.2554 35.4643C46.2472 26.3456 46.2459 17.2269 46.2581 8.10684C46.2594 7.62633 46.064 7.55711 45.6528 7.55847C40.2395 7.56797 34.8262 7.56525 29.4142 7.56525C29.2446 7.56525 29.0695 7.58561 28.908 7.54896C28.5213 7.45938 28.2824 7.2137 28.2852 6.7997C28.2879 6.38571 28.5281 6.14546 28.9162 6.05723C29.0614 6.02465 29.2188 6.04366 29.3722 6.04366C34.8194 6.04366 40.2653 6.04366 45.7125 6.04366C47.0872 6.04366 47.7712 6.72505 47.7712 8.09462C47.7712 17.2133 47.7712 26.3321 47.7712 35.4521C47.7712 36.8285 47.0899 37.5153 45.7247 37.5153C40.3101 37.5139 34.8967 37.5139 29.4834 37.5139Z" fill="#D21591"/>
<path d="M11.2258 17.1251C11.2258 14.0968 11.2244 11.0699 11.2258 8.04167C11.2258 6.74268 11.9287 6.04364 13.2342 6.04364C17.2091 6.04228 21.1839 6.04364 25.1574 6.04364C25.2931 6.04364 25.4301 6.03007 25.5631 6.05314C25.9852 6.12508 26.2389 6.38433 26.2349 6.8119C26.2308 7.23811 25.9743 7.49465 25.5496 7.55845C25.4003 7.58016 25.2456 7.56659 25.0936 7.56659C21.1866 7.56659 17.2796 7.57474 13.3726 7.55709C12.8909 7.55438 12.7362 7.68061 12.7375 8.18012C12.7538 14.2027 12.7484 20.2239 12.7484 26.2465C12.7484 26.3985 12.7633 26.5533 12.7403 26.7026C12.6751 27.1234 12.4308 27.3785 11.9939 27.3826C11.5569 27.3881 11.3086 27.1356 11.2353 26.7175C11.2095 26.5696 11.2258 26.4135 11.2258 26.2614C11.2258 23.2142 11.2258 20.1696 11.2258 17.1251Z" fill="#D21591"/>
<path d="M7.67489 51.9303C6.59195 51.9303 5.50902 51.9344 4.42744 51.9289C3.85476 51.9262 3.50057 51.6127 3.51821 51.1417C3.53449 50.691 3.87376 50.4101 4.43151 50.4087C6.59738 50.4046 8.76189 50.4046 10.9278 50.4087C11.4842 50.4101 11.8234 50.6924 11.8383 51.1444C11.8533 51.614 11.4977 51.9262 10.925 51.9289C9.84076 51.933 8.75782 51.9303 7.67489 51.9303Z" fill="#D21591"/>
<path d="M37.1526 49.6731C37.1526 50.1142 37.1811 50.5513 37.2584 50.9856C37.3738 51.6412 37.7415 51.9901 38.4079 52.0715C38.6263 52.0987 38.8462 52.0905 39.066 52.0919C44.0709 52.0919 49.0744 52.0919 54.0792 52.0919C54.2488 52.0919 54.4171 52.0919 54.5867 52.0837C55.0332 52.0634 55.3725 51.8991 55.4851 51.4241C55.4851 51.2544 55.4851 51.0861 55.4851 50.9164C55.2435 50.5119 54.8894 50.3993 54.4225 50.4006C49.3987 50.4142 44.3735 50.4047 39.3483 50.4183C38.9724 50.4196 38.872 50.3355 38.8774 49.9513C38.9018 48.2763 38.8978 46.6014 38.8788 44.9264C38.8747 44.5898 38.9724 44.5083 39.2981 44.5138C40.6348 44.5314 41.9715 44.53 43.3068 44.5192C44.3708 44.511 45.1104 43.755 45.128 42.6895C45.1307 42.5198 45.1267 42.3515 45.1294 42.1818C45.1375 41.6606 44.9448 40.9534 45.2094 40.6657C45.5107 40.3372 46.2259 40.5706 46.7606 40.5666C49.2155 40.553 50.8127 38.954 50.8127 36.4891C50.8141 31.684 50.8127 26.8776 50.8127 22.0726C50.8127 21.9369 50.8263 21.7984 50.8019 21.6681C50.7286 21.2677 50.4721 21.0274 50.0731 21.0179C49.6497 21.0098 49.3756 21.2487 49.301 21.6735C49.2752 21.8215 49.2915 21.9776 49.2915 22.1296C49.2915 26.9007 49.2915 31.6732 49.2915 36.4443C49.2915 38.1383 48.3904 39.0395 46.6954 39.0395C35.2255 39.0395 23.7557 39.0395 12.2844 39.0395C10.6153 39.0395 9.70467 38.1355 9.70467 36.4809C9.70467 26.6835 9.70467 16.8875 9.70467 7.09011C9.70467 5.42871 10.6112 4.52335 12.2763 4.52335C23.7638 4.52335 35.25 4.52335 46.7375 4.52335C48.3714 4.52335 49.2915 5.43685 49.2915 7.05754C49.2928 10.7129 49.2915 14.3669 49.2928 18.0223C49.2928 18.6263 49.5615 18.9588 50.0392 18.967C50.525 18.9751 50.8127 18.6439 50.8141 18.0521C50.8168 14.2963 50.8277 10.5392 50.81 6.78335C50.8005 4.68352 49.1313 3.0099 47.0293 3.00719C35.3395 2.99769 23.6485 2.99769 11.9587 3.00719C9.86208 3.00854 8.18883 4.69302 8.18611 6.79149C8.17661 16.7911 8.17661 26.7908 8.18611 36.7918C8.18747 38.6174 9.48346 40.1322 11.2721 40.4878C11.9777 40.6276 12.6888 40.5598 13.3972 40.5544C13.7528 40.5516 13.9102 40.6046 13.8763 41.0118C13.8342 41.533 13.8641 42.0597 13.8668 42.585C13.8708 43.7889 14.5901 44.5192 15.7843 44.5233C17.0694 44.5273 18.3559 44.5382 19.6411 44.5151C20.0034 44.5083 20.1255 44.5762 20.1201 44.9739C20.093 46.6312 20.097 48.2899 20.1188 49.9486C20.1242 50.3192 20.0441 50.4291 19.6546 50.4223C18.0316 50.3965 16.4072 50.4088 14.7828 50.4128C14.2467 50.4142 13.9183 50.668 13.8722 51.0942C13.8206 51.5829 14.187 51.9303 14.7787 51.9317C16.589 51.9358 18.3994 51.9331 20.2097 51.9331C21.2845 51.9331 21.6319 51.5869 21.6319 50.5065C21.6332 47.5284 21.6332 44.5504 21.6332 41.5724C21.6332 40.5598 21.6332 40.5747 22.6564 40.5544C23.0256 40.5476 23.1681 40.61 23.1653 41.0335C23.145 44.3156 23.1559 47.599 23.1531 50.8811C23.1518 52.5493 22.2453 53.4547 20.5883 53.456C15.2428 53.456 9.89601 53.4587 4.55055 53.4519C4.11357 53.4519 3.72681 53.5103 3.55989 53.9732C3.39026 54.4455 3.67796 54.7306 4.02129 54.979C9.84037 54.979 15.6608 54.979 21.4799 54.979C23.2074 54.7971 24.2089 53.7641 24.673 52.1679C24.8603 51.5218 24.8698 50.8322 24.8766 50.1576C24.8902 48.7881 24.8739 47.4199 24.882 46.0503C24.8929 44.4771 24.6961 44.6916 26.2581 44.6766C26.9923 44.6699 27.0085 44.6929 27.0085 45.4558C27.0099 48.0076 27.0099 50.5608 27.0085 53.1126C27.0085 53.4859 27.0425 53.8537 27.0968 54.2229C27.151 54.5908 27.3085 54.8568 27.6708 54.9776C27.8743 54.9776 28.0765 54.9776 28.2801 54.9776C28.8555 54.8039 28.846 54.3302 28.8474 53.8646C28.8501 49.7884 28.8487 45.7123 28.8487 41.6348C28.8487 41.4489 28.8419 41.2629 28.8637 41.0769C28.8827 40.9154 28.9383 40.8 29.1188 40.7457C29.8109 40.5394 30.1474 40.7715 30.1474 41.4814C30.1501 44.0523 30.1474 46.6231 30.1488 49.1939C30.1488 50.801 30.1461 52.4081 30.1501 54.0139C30.1515 54.4455 30.2288 54.8297 30.716 54.9749C30.9196 54.9749 31.1218 54.9749 31.3254 54.9749C31.689 54.8541 31.8451 54.5881 31.8994 54.2202C31.9537 53.851 31.9876 53.4832 31.9876 53.1099C31.9862 50.7603 31.9862 48.4107 31.9862 46.0611C31.9862 45.7734 31.9971 45.4856 31.9849 45.1992C31.97 44.8056 32.1532 44.6509 32.5359 44.6699C32.8222 44.6834 33.1099 44.6699 33.3976 44.6726C34.0788 44.6766 34.1128 44.7079 34.1155 45.3879C34.1195 46.9774 34.0965 48.5655 34.125 50.1549C34.1399 50.9286 34.1263 51.7213 34.3991 52.4597C34.9039 53.8252 35.8484 54.7102 37.3154 54.9763C43.2024 54.9763 49.0906 54.9763 54.9776 54.9763C55.2531 54.9125 55.4213 54.7441 55.4851 54.4686C55.4851 54.2989 55.4851 54.1306 55.4851 53.961C55.3725 53.4859 55.0332 53.3216 54.5867 53.3013C54.3669 53.2918 54.147 53.2931 53.9272 53.2931C48.8559 53.2931 43.7832 53.2931 38.7118 53.2931C38.4581 53.2931 38.2043 53.3026 37.9519 53.2768C36.8567 53.1628 36.0683 52.3457 36.0629 51.253C36.0452 47.9384 36.0534 44.6251 36.0601 41.3104C36.0615 40.7865 36.1864 40.7037 36.7007 40.7254C37.1906 40.7457 37.1539 41.0837 37.1539 41.4068C37.1553 44.1608 37.1553 46.9163 37.1526 49.6731ZM39.1963 40.5544C39.8884 40.5706 40.5805 40.5598 41.2726 40.5598C41.9484 40.5598 42.6229 40.5693 43.2987 40.5544C43.5335 40.5489 43.623 40.6046 43.6149 40.8584C43.5959 41.4312 43.6 42.0067 43.6122 42.5795C43.619 42.8836 43.4968 43.0017 43.1928 42.999C41.8589 42.9908 40.5262 42.9894 39.1922 43.0017C38.9425 43.0044 38.8774 42.927 38.8842 42.6868C38.9005 42.08 38.9005 41.4706 38.8842 40.8638C38.876 40.6181 38.952 40.5476 39.1963 40.5544ZM19.7741 43.0017C19.1159 42.984 18.4577 42.9962 17.7995 42.9962C17.1576 42.9962 16.5158 42.9799 15.8752 43.003C15.4925 43.0166 15.369 42.8673 15.384 42.4981C15.407 41.9755 15.403 41.4516 15.384 40.929C15.3745 40.6602 15.426 40.5489 15.7327 40.553C17.083 40.5706 18.4333 40.5693 19.7836 40.5544C20.0618 40.5516 20.1201 40.6453 20.1147 40.8978C20.0997 41.4882 20.0957 42.08 20.116 42.6705C20.1242 42.9419 20.0333 43.0084 19.7741 43.0017ZM26.1265 42.9962C26.0586 42.9962 25.9921 42.9962 25.9243 42.9962C25.9243 43.0017 25.9243 43.0085 25.9229 43.0139C25.5226 42.9949 24.996 43.1238 24.7558 42.9189C24.5021 42.7003 24.6825 42.1574 24.6798 41.757C24.669 40.5598 24.6758 40.5571 25.8659 40.5611C26.3002 40.5625 26.8742 40.4213 27.1307 40.6412C27.4021 40.8747 27.2067 41.4651 27.2107 41.8995C27.223 42.9962 27.2148 42.9962 26.1265 42.9962ZM34.3245 42.9012C34.1019 43.0967 33.5849 42.9718 33.1981 42.9596C32.7679 42.946 32.1952 43.1523 31.9482 42.8686C31.7365 42.6243 31.8763 42.0678 31.875 41.6484C31.8709 40.5272 31.8736 40.5272 32.9864 40.5272C33.0542 40.5272 33.1207 40.5272 33.2605 40.5272C33.5835 40.5706 34.1114 40.348 34.3407 40.6181C34.5348 40.8475 34.4181 41.3566 34.4072 41.7407C34.3964 42.1411 34.5891 42.6705 34.3245 42.9012Z" fill="#D21591"/>
<path d="M41.5351 27.3962C38.6486 22.3821 35.7554 17.3721 32.854 12.3662C31.2866 9.66097 27.6917 9.68405 26.1216 12.4015C23.2514 17.3667 20.4328 22.3617 17.5002 27.2903C15.8608 30.0457 17.9141 33.3102 20.9213 33.2247C23.7766 33.1432 26.6359 33.207 29.4939 33.207C32.3858 33.207 35.2777 33.2097 38.1682 33.2057C41.2542 33.2002 43.074 30.0675 41.5351 27.3962ZM38.0434 31.7044C35.1867 31.6203 32.3261 31.6827 29.4667 31.6827C26.6413 31.6827 23.8146 31.6081 20.9919 31.7085C19.0092 31.7791 17.8177 29.7295 18.8342 28.0138C21.7328 23.1219 24.5827 18.1987 27.3592 13.2362C28.3159 11.526 30.6664 11.5043 31.6435 13.2471C34.4227 18.2082 37.2671 23.1341 40.1726 28.0219C41.1415 29.6521 40.0545 31.7628 38.0434 31.7044Z" fill="#D21591"/>
<path d="M18.0048 9.133C16.588 8.85745 15.0912 9.68544 14.5185 11.0618C13.9323 12.4667 14.3665 14.2353 15.7277 14.9004C16.6722 15.3619 16.8215 15.9388 16.7102 16.7993C16.7061 16.8319 16.7088 16.8672 16.7102 16.9011C16.736 17.3966 17.0535 17.7278 17.4905 17.7156C17.9085 17.7033 18.2124 17.3844 18.2301 16.912C18.2437 16.5414 18.2545 16.1668 18.226 15.7976C18.2029 15.4963 18.3115 15.3728 18.5951 15.2655C19.8586 14.7905 20.6647 13.615 20.6674 12.3065C20.6714 10.7347 19.5844 9.43976 18.0048 9.133ZM17.4579 13.9598C16.5392 13.953 15.7901 13.1915 15.7969 12.2726C15.8037 11.355 16.565 10.6044 17.4837 10.6112C18.4024 10.6179 19.1529 11.3794 19.1461 12.2983C19.138 13.2159 18.3753 13.9665 17.4579 13.9598Z" fill="#D21591"/>
<path d="M33.9112 21.8025C33.6168 21.2446 33.116 21.0655 32.5121 21.0763C31.9164 21.0885 31.3193 21.079 30.657 21.079C31.1062 20.0379 31.531 19.0864 31.9272 18.1241C32.2773 17.2744 31.9801 16.4016 31.2283 15.9727C30.4765 15.5437 29.5727 15.727 29.0177 16.4613C27.4191 18.5761 25.834 20.703 24.2408 22.8232C23.8961 23.282 23.7944 23.7734 24.0631 24.2919C24.3277 24.805 24.7769 25.0317 25.3509 25.0276C25.9765 25.0222 26.6008 25.0262 27.3254 25.0262C26.8993 26.0157 26.4976 26.9387 26.1027 27.8645C25.7078 28.7915 25.9507 29.6616 26.7256 30.1231C27.5127 30.5914 28.4165 30.3742 29.034 29.5544C30.5783 27.5034 32.1131 25.4443 33.6615 23.3974C34.0402 22.8992 34.2193 22.3875 33.9112 21.8025ZM28.3351 27.9581C28.1736 28.1739 28.0135 28.3925 27.8479 28.6056C27.7692 28.7074 27.6932 28.8784 27.5371 28.7942C27.3444 28.6911 27.4801 28.5296 27.5358 28.4006C28.0528 27.1926 28.5726 25.9859 29.0977 24.7819C29.247 24.4398 29.3312 24.1059 29.072 23.7829C28.8874 23.5521 28.6323 23.4951 28.3473 23.4978C27.4761 23.5046 26.6062 23.5006 25.6549 23.5006C25.8001 23.297 25.891 23.1626 25.9887 23.0323C27.3268 21.2487 28.6608 19.4638 30.007 17.6884C30.125 17.5336 30.2173 17.178 30.4643 17.3354C30.6828 17.4739 30.4345 17.7332 30.3557 17.9205C29.8781 19.0525 29.3814 20.1778 28.8969 21.3084C28.5359 22.15 28.8399 22.6006 29.7627 22.6033C30.5878 22.6061 31.4115 22.6033 32.3493 22.6033C30.9664 24.4493 29.6501 26.2044 28.3351 27.9581Z" fill="#D21591"/>
</svg>
