<svg width="60" height="60" viewBox="0 0 60 60" fill="none" xmlns="http://www.w3.org/2000/svg">
<path d="M54.5403 11.2141C54.8272 11.2141 55.1155 11.2025 55.401 11.2184C55.7585 11.2371 55.9661 11.4563 55.995 11.7979C56.0281 12.1757 55.8061 12.451 55.45 12.4784C54.8258 12.5245 54.1929 12.5202 53.5686 12.4798C53.2327 12.4582 53.015 12.193 53.0237 11.8484C53.0338 11.488 53.2371 11.2386 53.6249 11.2184C53.9305 11.2011 54.2361 11.2126 54.5403 11.2141Z" fill="#D21591"/>
<path d="M54.5069 15.3214C54.7938 15.3199 55.0821 15.3113 55.369 15.3228C55.751 15.3387 55.9745 15.5621 55.9976 15.9297C56.0221 16.3074 55.7914 16.5698 55.4324 16.5943C54.8255 16.6361 54.2114 16.6318 53.603 16.5958C53.2382 16.5741 53.009 16.3089 53.0263 15.9398C53.0436 15.5794 53.2599 15.3415 53.6462 15.3257C53.9317 15.3113 54.22 15.3214 54.5069 15.3214Z" fill="#D21591"/>
<path d="M54.5512 8.37989C54.2456 8.37989 53.9399 8.40007 53.6372 8.37557C53.2667 8.34385 53.0274 8.11175 53.0274 7.74557C53.0259 7.35633 53.258 7.10837 53.6689 7.10116C54.2427 7.09107 54.8179 7.08818 55.3902 7.10692C55.7708 7.11846 55.99 7.35633 56.0001 7.72539C56.0101 8.1031 55.7752 8.32943 55.4119 8.37412C55.1293 8.40728 54.8381 8.37989 54.5512 8.37989Z" fill="#D21591"/>
<path d="M52.5153 40.2372C52.2659 38.1612 51.7381 36.1559 50.7345 34.2948C50.5226 33.9012 50.2558 33.7123 49.8016 33.7196C48.7418 33.7383 47.6805 33.7196 46.6193 33.7268C45.9387 33.7311 45.7512 33.9199 45.7483 34.5889C45.744 35.7566 45.7368 36.9258 45.7541 38.0935C45.7584 38.4092 45.7007 38.5317 45.3475 38.5231C44.3597 38.4971 43.3691 38.4971 42.3814 38.5231C42.0368 38.5317 41.969 38.4251 41.9719 38.1021C41.9878 36.3952 41.9834 34.6869 41.9777 32.9786C41.9733 31.6321 41.0952 30.7541 39.7542 30.7483C38.4781 30.7426 37.2005 30.7382 35.9244 30.7541C35.6245 30.757 35.5192 30.6806 35.5265 30.3677C35.5481 29.5777 35.5351 28.7863 35.5322 27.9948C35.5308 27.1558 35.3736 27.003 34.5157 27.003C32.0701 27.003 29.6246 26.9972 27.1805 27.0087C26.8691 27.0102 26.7436 26.9612 26.7523 26.6065C26.7782 25.4748 26.7754 24.3417 26.7537 23.21C26.7465 22.8669 26.8575 22.7934 27.1805 22.7963C28.709 22.8136 30.2374 22.8035 31.7659 22.8035C31.9461 22.8035 32.1264 22.8035 32.3037 22.7876C32.6685 22.7545 32.8589 22.5151 32.8747 22.1821C32.8906 21.8419 32.6902 21.6026 32.347 21.5319C32.1913 21.5002 32.0254 21.5103 31.8639 21.5103C28.0342 21.5089 24.2044 21.5089 20.3746 21.5103C20.1958 21.5103 20.0127 21.506 19.8396 21.5449C19.5195 21.6156 19.335 21.8462 19.3436 22.1634C19.3523 22.4993 19.5383 22.7386 19.8973 22.7833C20.0574 22.8035 20.2203 22.802 20.3818 22.802C21.9276 22.8035 23.4748 22.8121 25.0205 22.7963C25.3608 22.7934 25.4848 22.8669 25.4747 23.236C25.4473 24.3143 25.4358 25.3941 25.4791 26.471C25.4978 26.9467 25.3363 27.0145 24.9095 27.0116C22.4827 26.99 20.0545 27.0001 17.6277 27.0015C16.8635 27.0015 16.6847 27.1832 16.6818 27.9602C16.6789 28.7517 16.6645 29.5431 16.689 30.3331C16.6991 30.6647 16.6054 30.7599 16.2694 30.7541C15.0294 30.7339 13.7879 30.744 12.5478 30.7469C11.09 30.7498 10.2508 31.5931 10.2493 33.0578C10.2465 35.5029 10.2393 37.9479 10.258 40.3915C10.2609 40.7793 10.1902 40.9104 9.76918 40.9004C8.43972 40.8686 7.10737 40.8701 5.77791 40.9004C5.36984 40.909 5.27611 40.8009 5.28332 40.4016C5.31216 38.823 5.2963 37.24 5.29774 35.6586C5.29774 35.4423 5.31504 35.2217 5.16653 35.0415C4.98052 34.8166 4.75125 34.7056 4.45421 34.8109C4.0894 34.9406 4 35.2232 4 35.5778C4.00577 37.5558 4.00288 39.5322 4.00288 41.5102C4.00288 43.4881 4.00144 45.4646 4.00433 47.4425C4.00433 48.0004 4.24945 48.3176 4.65896 48.3104C5.06559 48.3046 5.2963 47.9903 5.29774 47.4238C5.30062 45.8236 5.30783 44.2233 5.29053 42.6246C5.28621 42.2843 5.35974 42.1704 5.72455 42.1762C7.09007 42.1993 8.45702 42.1993 9.82397 42.1762C10.1859 42.1704 10.2638 42.2815 10.2623 42.6246C10.2465 44.7452 10.2537 46.8673 10.2551 48.988C10.2566 50.6228 11.0684 51.4344 12.7006 51.4344C16.9976 51.4344 21.2946 51.4402 25.5915 51.4272C25.9996 51.4258 26.2808 51.5296 26.5504 51.8554C27.5814 53.1024 28.6513 54.3148 29.6895 55.5546C29.9563 55.8732 30.2475 56.0015 30.6643 56.0001C33.6664 55.9871 36.6699 55.9943 39.672 55.9914C41.1183 55.99 41.9806 55.1265 41.9834 53.679C41.9863 51.9894 41.9906 50.2998 41.9777 48.6102C41.9748 48.3147 42.0411 48.2109 42.3569 48.2181C43.3634 48.2383 44.3713 48.2383 45.3778 48.2181C45.6935 48.2124 45.7627 48.3176 45.7584 48.6131C45.7426 49.7996 45.7483 50.9861 45.7541 52.1725C45.757 52.7881 45.9488 52.9986 46.5428 53.0044C47.6574 53.0145 48.7721 53 49.8867 53.0116C50.2774 53.0159 50.5197 52.8487 50.6985 52.5128C51.0965 51.7674 51.4382 51.0005 51.6978 50.1975C52.7475 46.9423 52.9205 43.6078 52.5153 40.2372ZM50.1967 50.5219C49.7338 51.7184 49.7252 51.7227 48.4577 51.7112C47.9977 51.7069 47.3878 51.9102 47.1225 51.6175C46.8947 51.3652 47.0461 50.7655 47.0432 50.32C47.0374 49.4752 47.0461 48.6304 47.0403 47.7856C47.036 47.1585 46.8182 46.9351 46.2069 46.9336C44.6424 46.9293 43.0793 46.9293 41.5148 46.9336C40.8977 46.9351 40.6871 47.1513 40.6857 47.7827C40.6828 49.7232 40.6857 51.6651 40.6843 53.6055C40.6843 54.4359 40.4218 54.6968 39.5898 54.6983C36.768 54.6997 33.9447 54.6911 31.1228 54.7084C30.7782 54.7098 30.5662 54.6003 30.3528 54.3451C29.3261 53.1197 28.2663 51.9217 27.2483 50.6891C26.921 50.2926 26.572 50.1297 26.0529 50.1326C21.6132 50.1514 17.1721 50.1441 12.7324 50.1427C11.7778 50.1427 11.5471 49.9164 11.5471 48.9793C11.5471 46.3368 11.5471 43.6957 11.5471 41.0532C11.5471 38.4106 11.5456 35.7696 11.5471 33.127C11.5471 32.2923 11.798 32.0458 12.6401 32.0444C14.0777 32.0429 15.5167 32.0444 16.9543 32.0444C17.8224 32.0444 17.9781 31.8858 17.9796 30.9963C17.981 30.2409 17.9925 29.4869 17.9738 28.7315C17.9666 28.4201 18.03 28.2903 18.3847 28.2918C23.544 28.3033 28.7032 28.3019 33.8625 28.2932C34.184 28.2932 34.2532 28.4057 34.2475 28.6983C34.2316 29.5244 34.2359 30.3519 34.2446 31.1779C34.2503 31.8281 34.471 32.0415 35.1285 32.0429C36.6382 32.0473 38.1479 32.0429 39.659 32.0458C40.4161 32.0473 40.6857 32.3212 40.6871 33.091C40.69 35.0314 40.6871 36.9733 40.6886 38.9138C40.69 39.6029 40.8948 39.809 41.584 39.8105C43.1125 39.8134 44.6395 39.8134 46.1679 39.8105C46.8211 39.809 47.0403 39.5928 47.0432 38.9397C47.0475 37.772 47.0562 36.6028 47.0374 35.4351C47.0317 35.1122 47.1037 34.9954 47.4484 35.0127C48.0396 35.043 48.6351 35.043 49.2277 35.0127C49.5738 34.9954 49.7338 35.1352 49.8723 35.4322C50.7129 37.2271 51.1383 39.1286 51.307 41.0878C51.5824 44.3041 51.3748 47.4728 50.1967 50.5219Z" fill="#D21591"/>
<path d="M51.1664 18.8404C50.9228 18.6097 50.8233 18.3906 50.8261 18.0576C50.842 16.2786 50.8334 14.4996 50.8334 12.7206C50.8319 12.7206 50.8305 12.7206 50.8305 12.7206C50.8305 10.9416 50.8492 9.16121 50.8261 7.38367C50.8016 5.52107 49.2501 4.01312 47.3943 4.00014C45.4189 3.98717 43.902 5.51675 43.8919 7.58117C43.876 11.0498 43.8818 14.5183 43.8933 17.9869C43.8948 18.3531 43.7982 18.5996 43.5271 18.8678C42.0476 20.3238 41.4795 22.0913 41.9424 24.1254C42.4961 26.5589 44.447 28.2038 46.9704 28.4417C49.1896 28.6507 51.4318 27.323 52.4152 25.2167C53.4187 23.0673 52.9285 20.5141 51.1664 18.8404ZM51.1866 24.7727C50.3114 26.5358 48.4095 27.4643 46.4701 27.0721C44.597 26.6944 43.1507 25.0034 43.0902 23.0557C43.0469 21.666 43.5617 20.4853 44.6518 19.6073C45.044 19.2916 45.1968 18.9514 45.1911 18.4583C45.1709 16.6433 45.1824 14.8283 45.1824 13.0147C45.1839 13.0147 45.1853 13.0147 45.1867 13.0147C45.1867 11.1463 45.1666 9.27654 45.1939 7.40818C45.2113 6.27361 46.0807 5.38844 47.1766 5.29906C48.2595 5.21112 49.2328 5.91752 49.4823 6.99299C49.5385 7.23374 49.5371 7.49179 49.5371 7.7412C49.5399 11.2804 49.5486 14.8211 49.5298 18.3603C49.527 18.9096 49.6769 19.2844 50.1153 19.6462C51.6322 20.899 52.0518 23.0269 51.1866 24.7727Z" fill="#D21591"/>
<path d="M31.0717 40.9061C30.2714 40.1838 29.4683 39.463 28.6521 38.7595C28.4359 38.5735 28.4099 38.4467 28.5656 38.1915C29.3111 36.9661 30.0263 35.7234 30.7602 34.4908C30.9664 34.1448 31.1222 33.8046 30.7761 33.4701C30.4531 33.1587 30.1215 33.3029 29.7913 33.4874C27.0703 35.0127 24.3465 36.5322 21.627 38.0574C20.9738 38.4236 20.9378 38.8734 21.5247 39.3563C22.3437 40.0296 23.1569 40.71 24.0019 41.3487C24.3206 41.5894 24.3206 41.7754 24.1519 42.0983C23.5794 43.1925 23.0358 44.3026 22.4835 45.4083C22.3956 45.5842 22.2947 45.7572 22.2947 45.9634C22.3033 46.5141 22.8339 46.7491 23.4035 46.4319C25.911 45.0407 28.4157 43.6452 30.9189 42.2425C31.6139 41.8533 31.6586 41.4352 31.0717 40.9061ZM24.4633 44.3646C24.8469 43.5861 25.18 42.91 25.5145 42.2339C25.9615 41.3328 25.9514 41.2795 25.1944 40.6654C24.4576 40.0656 23.7193 39.4674 22.9147 38.8143C24.7604 37.7835 26.5556 36.7816 28.3493 35.7796C28.3782 35.807 28.407 35.8344 28.4344 35.8633C28.0062 36.5942 27.5765 37.3236 27.1482 38.0545C26.7747 38.6917 26.7993 38.8388 27.3616 39.339C28.1258 40.0195 28.8915 40.6985 29.712 41.428C27.9571 42.4112 26.2701 43.3554 24.4633 44.3646Z" fill="#D21591"/>
<path d="M48.3989 20.605C48.0715 20.4622 48.0052 20.2921 48.0081 19.9678C48.024 18.2969 48.0153 16.626 48.0153 14.9552C48.0153 14.5962 48.0153 14.2358 48.0153 13.8768C48.0153 12.4929 48.0211 11.1103 48.011 9.72635C48.0081 9.26647 47.7111 8.94498 47.3376 8.98535C46.9166 9.03148 46.7089 9.29098 46.7204 9.72059C46.7233 9.84601 46.7204 9.97143 46.7204 10.0983C46.7204 13.3867 46.7161 16.6751 46.7277 19.9634C46.7291 20.2892 46.6599 20.4579 46.3326 20.6006C45.1877 21.0994 44.6296 22.2657 44.9022 23.481C45.1516 24.594 46.2143 25.4244 47.3809 25.4157C48.5445 25.4071 49.5755 24.5767 49.8307 23.4421C50.0931 22.2801 49.5149 21.0908 48.3989 20.605ZM47.3376 24.1168C46.6584 24.1024 46.1177 23.5401 46.1307 22.8654C46.1437 22.185 46.6945 21.6617 47.3852 21.6703C48.0744 21.6804 48.5921 22.2182 48.5805 22.913C48.569 23.5949 48.0153 24.1312 47.3376 24.1168Z" fill="#D21591"/>
</svg>
