<svg width="54" height="51" viewBox="0 0 54 51" fill="none" xmlns="http://www.w3.org/2000/svg">
<path d="M9.77437 0.511292L7.13438 3.14754L11.0625 7.07379L13.6988 4.43754L9.77437 0.511292ZM44.2275 0.511292L40.2994 4.43754L42.9375 7.07379L46.8638 3.14942L44.2275 0.511292ZM27 1.68129C26.3813 1.68629 25.7563 1.72629 25.125 1.80129H25.0688C17.4638 2.67317 11.4113 8.81754 10.3594 16.3888C9.51937 22.4825 12.0319 28.0082 16.2188 31.5669C17.9312 33.0288 19.0895 35.0344 19.5 37.2482V48.4982H23.775C24.4275 49.6175 25.6181 50.3732 27 50.3732C28.3819 50.3732 29.5725 49.6175 30.225 48.4982H34.5V40.9982H34.6763V38.7707C34.6763 36.0219 36.105 33.2507 38.4263 31.0963C41.5312 27.9875 43.875 23.5719 43.875 18.5C43.875 9.23754 36.2513 1.59504 27 1.68129ZM27 5.43129C34.2469 5.33004 40.125 11.2625 40.125 18.5C40.125 22.4263 38.3063 25.8838 35.7881 28.4L35.8481 28.46C33.3467 30.7684 31.7288 33.8769 31.2731 37.25H23.0719C22.6594 34.0363 21.2812 30.9257 18.6769 28.6944C15.3637 25.8819 13.3894 21.6444 14.0494 16.8594C14.8688 10.9532 19.6613 6.20379 25.5338 5.55317C26.0186 5.48592 26.5069 5.44586 26.9963 5.43317L27 5.43129ZM0.75 18.5V22.25H6.375V18.5H0.75ZM47.625 18.5V22.25H53.25V18.5H47.625ZM11.0625 33.6763L7.13625 37.6007L9.77437 40.2388L13.6969 36.3125L11.0625 33.6763ZM42.9375 33.6763L40.3013 36.3125L44.2256 40.2388L46.8638 37.6007L42.9375 33.6763ZM23.25 41H30.75V44.75H23.25V41Z" fill="#D21591"/>
</svg>
