<svg width="43" height="47" viewBox="0 0 43 47" fill="none" xmlns="http://www.w3.org/2000/svg">
<path d="M6.76497 28.5925H5.44922V29.7519H6.76497V28.5925Z" fill="url(#paint0_linear_454_4125)"/>
<path d="M9.39193 28.5925H8.07617V29.7519H9.39193V28.5925Z" fill="url(#paint1_linear_454_4125)"/>
<path d="M6.76497 30.6199H5.44922V31.7793H6.76497V30.6199Z" fill="url(#paint2_linear_454_4125)"/>
<path d="M9.39193 30.6199H8.07617V31.7793H9.39193V30.6199Z" fill="url(#paint3_linear_454_4125)"/>
<path d="M6.51692 28.5925H5.20117V29.7519H6.51692V28.5925Z" fill="url(#paint4_linear_454_4125)"/>
<path d="M9.14388 28.5925H7.82812V29.7519H9.14388V28.5925Z" fill="url(#paint5_linear_454_4125)"/>
<path d="M6.51692 30.6199H5.20117V31.7793H6.51692V30.6199Z" fill="url(#paint6_linear_454_4125)"/>
<path d="M9.14388 30.6199H7.82812V31.7793H9.14388V30.6199Z" fill="url(#paint7_linear_454_4125)"/>
<path d="M21.9607 23.8301V33.6112H18.8567C18.1879 33.6112 17.5591 33.3486 17.1339 32.897L6.78231 21.8252L0 31.2252V14.1899H2.8932C4.83412 14.1899 6.67327 14.9586 7.90542 16.2813L16.9194 25.9727V23.5323L19.2711 21.4601L21.9607 23.8301Z" fill="url(#paint8_linear_454_4125)"/>
<path d="M18.8562 33.6112H17.3042C16.6355 33.6112 16.0067 33.3486 15.5814 32.897L6.21484 22.8789L6.78185 21.822L17.137 32.8938C17.5587 33.3486 18.1911 33.6112 18.8562 33.6112Z" fill="url(#paint9_linear_454_4125)"/>
<path d="M42.8027 33.6112H40.2439C39.0118 33.6112 38.0159 32.7337 38.0122 31.6512L37.9868 21.9534L31.4989 31.5583H29.1981L21.9615 22.3793V22.4434L19.2755 20.0766L16.9238 22.1487V14.19H18.3523C20.5985 14.19 22.6812 15.2116 23.8624 16.8931L30.4339 26.2482L36.671 16.9827C37.8378 15.2501 39.9568 14.1868 42.2466 14.1868H42.7446L42.8027 33.6112Z" fill="url(#paint10_linear_454_4125)"/>
<path d="M40.2438 33.6112H38.9608C37.7286 33.6112 36.7327 32.7337 36.7291 31.6512L36.7109 23.8526L37.9903 21.9565L38.0122 31.6512C38.0158 32.7337 39.0117 33.6112 40.2438 33.6112Z" fill="url(#paint11_linear_454_4125)"/>
<path d="M25.839 16.893L31.4 24.8101L30.4332 26.2482L23.8617 16.893C22.7786 15.3493 20.9322 14.3597 18.9004 14.2092V14.1899H20.3288C22.575 14.1899 24.6577 15.2116 25.839 16.893Z" fill="url(#paint12_linear_454_4125)"/>
<path d="M32.8989 8.5756C32.8662 8.54678 32.4555 8.17526 31.6704 7.71407C30.271 6.89738 27.6759 5.79244 23.8631 5.79244C14.9218 5.79244 8.28488 12.5342 8.28488 12.5342H1.74609C2.89829 10.4108 11.0727 3.37439 20.4974 3.37439C29.7949 3.37439 32.8189 8.44429 32.8989 8.5756Z" fill="url(#paint13_linear_454_4125)"/>
<path d="M31.6665 7.71733C30.2671 6.90064 27.672 5.7957 23.8592 5.7957C14.9179 5.7957 8.28096 12.5374 8.28096 12.5374H4.87891C7.89932 9.64536 14.5908 5.2096 22.0746 5.2096C26.6724 5.2064 29.7365 6.44585 31.6665 7.71733Z" fill="url(#paint14_linear_454_4125)"/>
<path d="M42.8043 12.5342H36.36C33.0924 -1.31438 16.8418 1.54245 16.8418 1.54245C16.8854 1.50081 16.9363 1.46238 16.9908 1.42074C18.143 0.597645 21.6614 -0.0653176 25.8812 0.00514219C41.2668 0.00514219 42.8043 12.5342 42.8043 12.5342Z" fill="url(#paint15_linear_454_4125)"/>
<path d="M38.6935 12.5341H36.3636C33.0924 -1.31444 16.8418 1.54238 16.8418 1.54238C16.8854 1.50074 16.9363 1.46231 16.9908 1.42068C18.4338 1.21891 20.153 1.10681 22.0067 1.13884C34.539 1.13884 37.8829 9.44989 38.6935 12.5341Z" fill="url(#paint16_linear_454_4125)"/>
<path d="M40.5098 34.4151C32.4481 44.4621 24.6845 47.226 15.4269 46.9858C6.79823 46.7584 1.68787 40.811 1.03363 40.0071C0.98638 39.9462 0.960938 39.9174 0.960938 39.9174C0.960938 39.9174 3.05815 41.2177 3.42161 41.4099C3.87595 41.6533 4.62106 42.012 5.67511 42.3899C11.9558 44.6574 19.2106 44.0745 24.9135 40.9583C30.0965 38.1271 33.4041 34.3767 33.4041 34.3767L36.0646 34.3895L36.4354 34.3927L40.5098 34.4151Z" fill="url(#paint17_linear_454_4125)"/>
<path d="M36.0646 34.3927C28.7081 42.5148 21.4823 44.8176 12.9954 44.5966C7.49972 44.4525 3.43252 41.9864 1.03363 40.0071C0.98638 39.9462 0.960938 39.9174 0.960938 39.9174C0.960938 39.9174 3.05815 41.2177 3.42161 41.4099C3.87595 41.6533 4.62106 42.012 5.67511 42.3899C11.9558 44.6574 19.2106 44.0745 24.9135 40.9583C30.0965 38.1271 33.4041 34.3767 33.4041 34.3767L36.0646 34.3927Z" fill="url(#paint18_linear_454_4125)"/>
<path d="M23.6863 39.8535C23.6427 39.8791 22.9376 40.2987 21.8653 40.7951C20.7277 41.3235 19.1757 41.9353 17.5728 42.2555C15.0721 42.7552 12.4443 42.4957 9.99449 41.8552C3.38302 40.1289 0.88236 36.3369 0.0136719 34.4153H5.8546C10.318 44.965 23.4828 39.9304 23.6863 39.8535Z" fill="url(#paint19_linear_454_4125)"/>
<path d="M23.6874 39.8534C23.6438 39.879 17.8756 42.5116 11.8674 41.1184C6.24095 39.8117 4.38 36.4489 3.16602 34.4152H5.85568C10.3191 44.9649 23.4839 39.9302 23.6874 39.8534Z" fill="url(#paint20_linear_454_4125)"/>
<defs>
<linearGradient id="paint0_linear_454_4125" x1="6.10586" y1="28.6755" x2="6.10586" y2="29.7283" gradientUnits="userSpaceOnUse">
<stop stop-color="#CCCCCC"/>
<stop offset="1" stop-color="#808080"/>
</linearGradient>
<linearGradient id="paint1_linear_454_4125" x1="8.73536" y1="28.6755" x2="8.73536" y2="29.7283" gradientUnits="userSpaceOnUse">
<stop stop-color="#CCCCCC"/>
<stop offset="1" stop-color="#808080"/>
</linearGradient>
<linearGradient id="paint2_linear_454_4125" x1="6.10586" y1="30.6525" x2="6.10586" y2="31.8056" gradientUnits="userSpaceOnUse">
<stop stop-color="#CCCCCC"/>
<stop offset="1" stop-color="#808080"/>
</linearGradient>
<linearGradient id="paint3_linear_454_4125" x1="8.73536" y1="30.6525" x2="8.73536" y2="31.8056" gradientUnits="userSpaceOnUse">
<stop stop-color="#CCCCCC"/>
<stop offset="1" stop-color="#808080"/>
</linearGradient>
<linearGradient id="paint4_linear_454_4125" x1="5.85767" y1="28.6081" x2="5.85767" y2="29.9089" gradientUnits="userSpaceOnUse">
<stop stop-color="#808080"/>
<stop offset="0.4824" stop-color="#CCCCCC"/>
<stop offset="1" stop-color="#808080"/>
</linearGradient>
<linearGradient id="paint5_linear_454_4125" x1="8.48713" y1="28.5946" x2="8.48713" y2="29.8549" gradientUnits="userSpaceOnUse">
<stop stop-color="#808080"/>
<stop offset="0.4824" stop-color="#CCCCCC"/>
<stop offset="1" stop-color="#808080"/>
</linearGradient>
<linearGradient id="paint6_linear_454_4125" x1="5.85767" y1="30.6233" x2="5.85767" y2="32.0567" gradientUnits="userSpaceOnUse">
<stop stop-color="#808080"/>
<stop offset="0.4824" stop-color="#CCCCCC"/>
<stop offset="1" stop-color="#808080"/>
</linearGradient>
<linearGradient id="paint7_linear_454_4125" x1="8.48713" y1="30.6638" x2="8.48713" y2="31.9464" gradientUnits="userSpaceOnUse">
<stop stop-color="#808080"/>
<stop offset="0.4824" stop-color="#CCCCCC"/>
<stop offset="1" stop-color="#808080"/>
</linearGradient>
<linearGradient id="paint8_linear_454_4125" x1="-2.41473" y1="18.707" x2="18.3808" y2="35.678" gradientUnits="userSpaceOnUse">
<stop stop-color="#662D91"/>
<stop offset="0.0224" stop-color="#6B2C91"/>
<stop offset="0.2245" stop-color="#902391"/>
<stop offset="0.4258" stop-color="#AE1D91"/>
<stop offset="0.6238" stop-color="#C31891"/>
<stop offset="0.8171" stop-color="#D01591"/>
<stop offset="1" stop-color="#D41491"/>
</linearGradient>
<linearGradient id="paint9_linear_454_4125" x1="17.3534" y1="34.02" x2="9.5205" y2="21.9273" gradientUnits="userSpaceOnUse">
<stop stop-color="#662D91"/>
<stop offset="0.0224" stop-color="#6B2C91"/>
<stop offset="0.2245" stop-color="#902391"/>
<stop offset="0.4258" stop-color="#AE1D91"/>
<stop offset="0.6238" stop-color="#C31891"/>
<stop offset="0.8171" stop-color="#D01591"/>
<stop offset="1" stop-color="#D41491"/>
</linearGradient>
<linearGradient id="paint10_linear_454_4125" x1="16.3815" y1="17.9755" x2="40.5829" y2="25.771" gradientUnits="userSpaceOnUse">
<stop stop-color="#CCCCCC"/>
<stop offset="0.2238" stop-color="#C1C1C1"/>
<stop offset="0.6196" stop-color="#A3A3A3"/>
<stop offset="1" stop-color="#808080"/>
</linearGradient>
<linearGradient id="paint11_linear_454_4125" x1="38.3877" y1="34.4401" x2="38.4528" y2="28.9784" gradientUnits="userSpaceOnUse">
<stop stop-color="#808080"/>
<stop offset="1" stop-color="#B3B3B3"/>
</linearGradient>
<linearGradient id="paint12_linear_454_4125" x1="18.6022" y1="13.9026" x2="27.7357" y2="23.1724" gradientUnits="userSpaceOnUse">
<stop stop-color="#808080"/>
<stop offset="1" stop-color="#B3B3B3"/>
</linearGradient>
<linearGradient id="paint13_linear_454_4125" x1="8.58732" y1="17.8779" x2="22.6624" y2="2.14459" gradientUnits="userSpaceOnUse">
<stop stop-color="#808080"/>
<stop offset="1" stop-color="#B3B3B3"/>
</linearGradient>
<linearGradient id="paint14_linear_454_4125" x1="26.7859" y1="5.63063" x2="13.6158" y2="12.6409" gradientUnits="userSpaceOnUse">
<stop stop-color="#808080"/>
<stop offset="1" stop-color="#B3B3B3"/>
</linearGradient>
<linearGradient id="paint15_linear_454_4125" x1="28.8777" y1="4.27555" x2="36.679" y2="15.1721" gradientUnits="userSpaceOnUse">
<stop stop-color="#662D91"/>
<stop offset="0.0224" stop-color="#6B2C91"/>
<stop offset="0.2245" stop-color="#902391"/>
<stop offset="0.4258" stop-color="#AE1D91"/>
<stop offset="0.6238" stop-color="#C31891"/>
<stop offset="0.8171" stop-color="#D01591"/>
<stop offset="1" stop-color="#D41491"/>
</linearGradient>
<linearGradient id="paint16_linear_454_4125" x1="37.038" y1="14.7706" x2="27.4602" y2="2.528" gradientUnits="userSpaceOnUse">
<stop stop-color="#662D91"/>
<stop offset="0.0224" stop-color="#6B2C91"/>
<stop offset="0.2245" stop-color="#902391"/>
<stop offset="0.4258" stop-color="#AE1D91"/>
<stop offset="0.6238" stop-color="#C31891"/>
<stop offset="0.8171" stop-color="#D01591"/>
<stop offset="1" stop-color="#D41491"/>
</linearGradient>
<linearGradient id="paint17_linear_454_4125" x1="28.9898" y1="31.5028" x2="16.5496" y2="44.0091" gradientUnits="userSpaceOnUse">
<stop stop-color="#662D91"/>
<stop offset="0.0224" stop-color="#6B2C91"/>
<stop offset="0.2245" stop-color="#902391"/>
<stop offset="0.4258" stop-color="#AE1D91"/>
<stop offset="0.6238" stop-color="#C31891"/>
<stop offset="0.8171" stop-color="#D01591"/>
<stop offset="1" stop-color="#D41491"/>
</linearGradient>
<linearGradient id="paint18_linear_454_4125" x1="25.788" y1="31.859" x2="14.5917" y2="43.1149" gradientUnits="userSpaceOnUse">
<stop stop-color="#D41491"/>
<stop offset="0.1829" stop-color="#D01591"/>
<stop offset="0.3762" stop-color="#C31891"/>
<stop offset="0.5742" stop-color="#AE1D91"/>
<stop offset="0.7755" stop-color="#902391"/>
<stop offset="0.9776" stop-color="#6B2C91"/>
<stop offset="1" stop-color="#662D91"/>
</linearGradient>
<linearGradient id="paint19_linear_454_4125" x1="16.6825" y1="40.9455" x2="4.61192" y2="33.9525" gradientUnits="userSpaceOnUse">
<stop stop-color="#808080"/>
<stop offset="1" stop-color="#B3B3B3"/>
</linearGradient>
<linearGradient id="paint20_linear_454_4125" x1="17.64" y1="40.5868" x2="6.98756" y2="34.4154" gradientUnits="userSpaceOnUse">
<stop stop-color="#B3B3B3"/>
<stop offset="1" stop-color="#808080"/>
</linearGradient>
</defs>
</svg>
