<svg width="101" height="101" viewBox="0 0 101 101" fill="none" xmlns="http://www.w3.org/2000/svg">
<g id="Group">
<path id="Vector" d="M39.1604 6.17462C39.1604 7.91043 39.1459 9.42851 39.1641 10.9466C39.1786 12.1963 39.9847 12.9389 41.2884 12.9628C42.6393 12.9866 43.4854 12.2142 43.4999 10.9048C43.5181 9.23167 43.4818 7.55849 43.5181 5.88532C43.5871 2.81932 46.4269 0.487011 50.0474 0.489993C53.6497 0.492976 56.4713 2.83721 56.5367 5.91514C56.573 7.58832 56.533 9.26149 56.5512 10.9347C56.5657 12.1635 57.3973 12.9508 58.661 12.9807C59.972 13.0105 60.8726 12.1933 60.8907 10.9168C60.9089 9.40167 60.8944 7.88657 60.8944 6.24023C64.78 7.85376 67.7468 10.1115 70.0201 12.9956C71.9592 15.4561 73.2193 18.1404 73.7168 21.0483C73.8476 21.8118 74.1308 22.3188 75.0968 22.7245C77.6206 23.7862 78.7027 26.1364 78.0237 28.5433C77.3773 30.8279 75.1077 32.4384 72.2788 32.6084C71.8721 32.6323 71.4654 32.6233 71.0586 32.6233C57.0269 32.6233 42.9916 32.6233 28.9598 32.6233C25.3575 32.6233 22.8336 31.1709 22.0057 28.6298C21.1923 26.1275 22.4342 23.8638 25.5572 22.4232C26.4723 21.9997 26.2145 21.3406 26.3343 20.7888C27.5436 15.313 30.7755 10.881 36.2989 7.62113C37.1341 7.12901 38.0492 6.72936 39.1604 6.17462Z" fill="#D21491"/>
<path id="Vector_2" d="M65.3392 62.3497C69.3591 63.0864 73.3609 63.8469 77.3809 64.5299C78.3541 64.694 78.2924 65.1503 78.2924 65.7199C78.2851 72.523 78.2851 79.3231 78.2887 86.1261C78.2887 90.5879 78.2633 95.0468 78.3105 99.5086C78.3178 100.272 78.1217 100.496 77.1449 100.49C69.1812 100.454 61.2139 100.46 53.2502 100.484C52.4659 100.487 52.1754 100.385 52.179 99.6547C52.2153 91.8108 52.2008 83.9698 52.208 76.1258C52.208 75.762 52.0301 75.3922 52.8072 75.2251C60.8726 73.4685 64.8417 69.451 65.252 62.7136C65.2557 62.6032 65.3029 62.4959 65.3392 62.3497Z" fill="#D21491"/>
<path id="Vector_3" d="M73.6878 36.0026C72.9216 38.7047 72.8852 41.4098 71.9447 43.9867C68.8471 52.4749 59.5108 57.9507 48.7255 57.6137C38.7029 57.3035 30.0311 51.1566 27.7724 42.6833C27.195 40.5121 26.8645 38.2931 26.4033 36.0205C34.3016 36.2978 42.1636 36.2412 50.0256 36.2382C57.8549 36.2352 65.6842 36.3157 73.6878 36.0026Z" fill="#D21491"/>
<path id="Vector_4" d="M82.6319 65.5947C89.5352 66.3195 95.0985 68.6041 98.276 73.889C99.369 75.7113 99.9827 77.6529 99.9936 79.684C100.034 85.9323 100.023 92.1806 100.012 98.4289C100.008 99.7919 99.1657 100.457 97.4771 100.463C92.8579 100.475 88.2388 100.463 83.6196 100.472C83.0604 100.472 82.6101 100.544 82.6101 99.8277C82.6392 88.4466 82.6319 77.0684 82.6319 65.5947Z" fill="#D21491"/>
<path id="Vector_5" d="M17.4228 65.5352C17.4228 69.6241 17.4228 73.561 17.4228 77.4949C17.4228 84.8498 17.412 92.2076 17.441 99.5624C17.4446 100.263 17.2667 100.496 16.3516 100.487C11.7833 100.445 7.21498 100.472 2.64668 100.463C0.82009 100.46 0.0393377 99.801 0.0357063 98.271C0.0284435 92.2523 0.00665866 86.2336 0.0393413 80.215C0.0792867 73.1912 5.75152 67.5394 14.1255 66.1108C15.1859 65.9318 16.2426 65.7409 17.4228 65.5352Z" fill="#D21491"/>
<path id="Vector_6" d="M60.9161 59.3524C60.7709 61.5386 61.1885 63.6144 60.3787 65.6514C58.7445 69.7643 54.0782 72.3113 49.0269 71.7924C43.3946 71.2138 39.5453 68.0255 39.204 63.5786C39.0987 62.2126 39.1894 60.8347 39.1894 59.3554C46.4196 61.8189 53.6243 61.7951 60.9161 59.3524Z" fill="#D21491"/>
<path id="Vector_7" d="M47.8648 76.1379C47.8648 75.598 47.7886 75.3565 46.9933 75.1984C40.8925 73.9994 36.9343 70.9275 35.2784 65.9139C34.8971 64.7567 34.8281 63.5756 34.7664 62.3588C30.6593 63.1014 26.6102 63.847 22.554 64.5569C21.8531 64.6791 21.7623 64.9834 21.7623 65.4904C21.7769 76.9014 21.7769 88.3124 21.7623 99.7204C21.7623 100.266 21.8749 100.484 22.6339 100.481C30.7319 100.457 38.8335 100.454 46.9316 100.481C47.7414 100.484 47.8721 100.257 47.8721 99.6608C47.8467 91.8198 47.8503 83.9788 47.8648 76.1379ZM39.0006 86.1799C37.6025 86.2067 36.2044 86.1859 34.8027 86.1859C33.4046 86.1859 32.0029 86.2067 30.6048 86.1799C29.2321 86.1531 28.3134 85.4253 28.2952 84.4202C28.2771 83.4181 29.2031 82.6367 30.5539 82.6248C33.3973 82.5979 36.2407 82.595 39.0805 82.6248C40.4241 82.6397 41.3501 83.4301 41.3247 84.4352C41.2993 85.4343 40.3732 86.1531 39.0006 86.1799Z" fill="#D21491"/>
</g>
</svg>
