<svg width="100" height="100" viewBox="0 0 100 100" fill="none" xmlns="http://www.w3.org/2000/svg">
<g id="Group">
<path id="Vector" d="M49.9746 17.814C43.7169 17.7304 37.5193 17.1977 31.515 15.2732C29.4074 14.5969 27.3624 13.7744 25.6152 12.3669C22.9512 10.2257 22.9486 7.79204 25.6178 5.64299C27.9187 3.79163 30.6401 2.78108 33.4425 2.08127C44.5918 -0.699695 55.7542 -0.723198 66.8906 2.18833C69.1549 2.78108 71.3331 3.62451 73.318 4.9014C74.2268 5.48632 75.0652 6.15219 75.6737 7.05828C76.6113 8.45007 76.5748 9.8497 75.5013 11.2023C74.2086 12.8343 72.4065 13.7404 70.5313 14.5108C66.4701 16.1741 62.1947 16.9392 57.8593 17.404C55.2424 17.686 52.6124 17.8244 49.9746 17.814Z" fill="#D21491"/>
<path id="Vector_2" d="M76.3342 15.8555C76.3342 19.4616 76.3603 23.0703 76.3212 26.6765C76.3055 28.0917 75.4201 29.0788 74.3807 29.9118C72.6073 31.3375 70.5389 32.1835 68.3946 32.8677C62.5444 34.7295 56.514 35.3353 50.4131 35.3614C44.017 35.3901 37.6914 34.8052 31.5539 32.8572C29.5064 32.207 27.5319 31.3976 25.7951 30.0919C24.3326 28.99 23.5256 27.6322 23.5882 25.6946C23.6927 22.4175 23.617 19.1378 23.617 15.6675C24.9489 18.4249 27.3465 19.5556 29.8224 20.527C34.338 22.3026 39.0835 23.0468 43.889 23.4202C50.9589 23.9686 57.9896 23.6683 64.9315 22.1068C67.7574 21.4723 70.5153 20.6314 73.0278 19.143C74.3833 18.3388 75.5977 17.3805 76.3342 15.8555Z" fill="#D21491"/>
<path id="Vector_3" d="M99.9604 73.7414C99.9577 71.7255 98.7616 70.5244 96.7584 70.5191C94.1545 70.5113 91.5533 70.493 88.952 70.5348C88.2573 70.5452 88.0118 70.4225 88.0327 69.6548C88.0928 67.3152 87.957 64.965 88.0823 62.6306C88.2129 60.1865 86.9123 58.7425 84.1804 58.7686C74.0627 58.86 63.945 58.7947 53.8272 58.8234C53.0437 58.826 52.8583 58.6067 52.8922 57.8651C52.9523 56.502 52.9575 55.1311 52.8896 53.7681C52.8504 52.9977 53.0959 52.7941 53.8455 52.768C58.3742 52.6113 62.8428 52.0107 67.2096 50.773C69.743 50.0549 72.2188 49.1618 74.3317 47.5115C75.3294 46.7334 76.2644 45.809 76.2931 44.4982C76.3741 40.8085 76.3218 37.1136 76.3218 33.1184C75.5958 34.9411 74.3709 35.9098 72.9997 36.7324C71.2342 37.7925 69.3251 38.5419 67.348 39.0537C55.9505 42.0018 44.5113 42.041 33.1138 39.1608C29.4522 38.2364 25.7592 37.0744 23.6229 33.3586C23.6229 36.6723 23.7195 39.8946 23.5889 43.109C23.5027 45.258 24.4194 46.7073 26.0779 47.8536C27.9687 49.1592 30.0868 49.9687 32.2702 50.6189C36.7806 51.9611 41.406 52.5878 46.0966 52.768C46.8122 52.7941 47.123 52.9377 47.076 53.7472C46.9976 55.1076 46.9924 56.4811 47.076 57.8442C47.1282 58.6955 46.8383 58.826 46.0574 58.8234C35.7438 58.7947 25.4328 58.8025 15.1192 58.8077C13.1081 58.8077 11.9146 60.0115 11.9094 62.0248C11.9015 64.6282 11.8911 67.229 11.9198 69.8324C11.925 70.3781 11.784 70.54 11.2277 70.5348C8.78838 70.5035 6.34383 70.6027 3.90972 70.4956C2.08936 70.4147 0.775676 70.997 0 72.6708C0 81.0659 0 89.4584 0 97.8536C0.21416 99.0704 0.984613 99.7336 2.14682 100C10.5435 100 18.9375 100 27.3341 100C29.1388 99.4151 29.7473 98.5847 29.7865 96.6472C29.7891 96.5819 29.7891 96.5166 29.7891 96.4513C29.7917 89.0015 29.7969 81.5516 29.7865 74.0991C29.7839 71.4827 28.5068 70.2293 25.8742 70.2162C23.7587 70.2058 21.6432 70.2162 19.5277 70.2136C18.1043 70.211 18.0808 70.1849 18.0756 68.72C18.073 67.9706 18.073 67.2238 18.0756 66.4743C18.0834 64.9911 18.0991 64.9729 19.6243 64.9729C27.6606 64.9703 35.6994 64.9729 43.7356 64.9729C44.3206 64.9729 44.9083 64.965 45.4933 64.9755C46.645 64.9912 46.7286 65.0669 46.7443 66.1845C46.7599 67.1271 46.7573 68.0724 46.7443 69.0151C46.7286 70.1275 46.645 70.2084 45.4907 70.2136C43.2446 70.2241 41.0011 70.2006 38.7551 70.2215C36.368 70.2423 35.0491 71.5323 35.0438 73.9059C35.0229 81.4863 35.0256 89.0667 35.0438 96.6472C35.0491 98.5847 35.6837 99.4151 37.491 100C45.8223 100 54.1511 100 62.4824 100C64.2871 99.4151 64.8956 98.5847 64.9348 96.6472C64.9374 96.5819 64.9374 96.5166 64.9374 96.4513C64.94 89.0015 64.9453 81.5516 64.9348 74.0991C64.9322 71.4827 63.6551 70.2293 61.0225 70.2162C58.907 70.2058 56.7915 70.2162 54.676 70.2136C53.2527 70.211 53.2291 70.1849 53.2239 68.72C53.2213 67.9706 53.2213 67.2238 53.2239 66.4743C53.2318 64.9938 53.2474 64.9729 54.7727 64.9729C62.8089 64.9703 70.8477 64.9729 78.8839 64.9729C79.4689 64.9729 80.0566 64.965 80.6416 64.9755C81.7934 64.9912 81.8769 65.0669 81.8926 66.1845C81.9083 67.1271 81.9057 68.0724 81.8926 69.0151C81.8769 70.1275 81.7934 70.2084 80.6364 70.2136C78.3903 70.2241 76.1468 70.2006 73.9008 70.2215C71.5137 70.2423 70.1948 71.5323 70.1896 73.9059C70.1687 81.4863 70.1713 89.0667 70.1896 96.6472C70.1948 98.5847 70.8294 99.4151 72.6367 100C81.0333 100 89.4274 100 97.824 100C99.4955 99.2218 100.018 97.9032 99.9995 96.0936C99.9238 88.6411 99.9656 81.1913 99.9604 73.7414ZM14.7535 88.0849C13.176 88.0405 11.8754 86.6775 11.9068 85.1003C11.9355 83.5205 13.2857 82.2122 14.8658 82.2305C16.4459 82.2488 17.7674 83.5858 17.7622 85.1656C17.757 86.7819 16.3675 88.1319 14.7535 88.0849ZM50.022 88.0849C48.4027 88.1084 47.0368 86.748 47.0525 85.1264C47.0681 83.5466 48.4053 82.2279 49.9854 82.2305C51.5655 82.2331 52.8975 83.5596 52.9079 85.1394C52.9157 86.7219 51.6021 88.0614 50.022 88.0849ZM85.1076 88.0849C83.5275 88.0771 82.2008 86.7454 82.1956 85.1656C82.1903 83.5492 83.5719 82.194 85.1886 82.2305C86.7713 82.2671 88.0745 83.6171 88.051 85.1969C88.0275 86.7793 86.6851 88.0954 85.1076 88.0849Z" fill="#D21491"/>
</g>
</svg>
