<svg width="101" height="100" viewBox="0 0 101 100" fill="none" xmlns="http://www.w3.org/2000/svg">
<g id="Group">
<path id="Vector" d="M56.3966 29.5048C50.2376 27.7865 44.4456 28.3981 39.0296 31.6228C34.8729 34.0988 31.8919 37.6188 30.1074 42.1293C26.5475 51.1293 29.4539 61.3673 37.2004 67.1575C44.8544 72.8791 55.9252 73.1566 64.167 66.1105C64.4744 66.2805 64.3192 66.5728 64.3192 66.7996C64.3282 72.7896 64.3132 78.7767 64.3461 84.7668C64.349 85.4827 64.1402 85.8109 63.4479 86.0018C62.1618 86.3568 60.9234 86.8848 59.6283 87.192C58.9122 87.3621 58.6585 87.6544 58.6108 88.3555C58.4049 91.3595 58.1781 94.3634 57.9125 97.3615C57.7484 99.214 56.8592 99.9925 55.0031 99.9955C51.6908 100.001 48.3786 100.001 45.0693 99.9955C43.2162 99.9925 42.33 99.214 42.1658 97.3585C41.9092 94.432 41.6884 91.5026 41.4944 88.5732C41.4407 87.7708 41.2139 87.371 40.3366 87.1592C36.8185 86.3061 33.5062 84.904 30.4237 83.0068C29.8299 82.6398 29.4897 82.7383 29.0093 83.1589C26.8011 85.0949 24.5631 86.9982 22.3251 88.9044C20.7078 90.2796 19.5649 90.2289 18.0639 88.7343C15.7991 86.4761 13.5372 84.2119 11.2753 81.9478C9.78924 80.4592 9.75044 79.3196 11.144 77.6909C13.0508 75.4565 14.9456 73.2102 16.8942 71.0117C17.3537 70.4926 17.3328 70.1376 17.0016 69.5888C15.0769 66.4326 13.6834 63.0438 12.7971 59.4581C12.636 58.8108 12.3555 58.6288 11.7587 58.5871C8.71797 58.3663 5.67726 58.1396 2.63953 57.8711C0.84613 57.713 0.0374613 56.8121 0.0314932 55.0521C0.0225412 51.6663 0.0195571 48.2834 0.0314932 44.8976C0.0374613 43.2002 0.86105 42.2874 2.57985 42.1382C5.58177 41.8757 8.58369 41.646 11.5886 41.4432C12.3167 41.3925 12.6449 41.1687 12.8389 40.3872C13.7102 36.876 15.071 33.5529 16.9748 30.4683C17.3388 29.8807 17.3597 29.5078 16.8614 28.9499C14.9068 26.7574 13.0179 24.5051 11.1112 22.2708C9.76835 20.6957 9.80117 19.5382 11.2365 18.0944C13.5461 15.7736 15.8617 13.4587 18.1833 11.1527C19.5321 9.81035 20.7346 9.75367 22.1968 10.9917C24.4975 12.9366 26.7862 14.8965 29.0511 16.8833C29.5136 17.289 29.821 17.3606 30.376 17.0205C33.4973 15.1113 36.8394 13.6943 40.3933 12.8352C41.2408 12.6294 41.4318 12.2267 41.4825 11.4869C41.6914 8.51866 41.9092 5.55346 42.1718 2.59124C42.33 0.807342 43.2311 0.0138364 45.0126 0.0078702C48.3607 -0.00107911 51.7117 -0.00406221 55.0598 0.0078702C57.5156 0.0168195 58.5213 1.83651 57.3157 3.97838C52.8158 11.9582 52.398 20.1617 56.0266 28.5741C56.134 28.8246 56.2355 29.0961 56.3966 29.5048Z" fill="#D21491"/>
<path id="Vector_2" d="M71.4719 63.7209C71.4719 54.4972 71.46 45.2705 71.4928 36.0467C71.4958 35.2413 71.272 34.8177 70.5558 34.409C57.7484 27.1123 57.4828 8.49476 70.0634 0.810281C70.4156 0.595498 70.7647 0.121184 71.2362 0.401596C71.7046 0.682007 71.46 1.22195 71.4629 1.63958C71.4779 7.92498 71.4868 14.2134 71.454 20.4988C71.451 21.2058 71.6599 21.5339 72.3194 21.7875C74.811 22.7391 77.2848 23.7474 79.7555 24.7527C80.1942 24.9317 80.5672 24.9525 81.0208 24.7676C83.5214 23.7384 86.0279 22.7152 88.5584 21.7547C89.2 21.51 89.3551 21.1789 89.3521 20.5375C89.3283 14.1776 89.3342 7.81461 89.3462 1.45463C89.3462 1.10561 89.1612 0.673059 89.5401 0.416512C89.9937 0.112235 90.304 0.544785 90.6233 0.735704C103.302 8.33367 103.123 26.9632 90.2802 34.397C89.5133 34.8415 89.3193 35.3069 89.3193 36.1302C89.3402 54.357 89.3432 72.5837 89.3313 90.8105C89.3283 95.9922 85.4252 99.9895 80.418 99.9955C75.4944 100.001 71.4988 96.0548 71.4809 91.0641C71.451 81.9477 71.4719 72.8343 71.4719 63.7209Z" fill="#D21491"/>
</g>
</svg>
