<svg width="97" height="110" viewBox="0 0 97 110" fill="none" xmlns="http://www.w3.org/2000/svg">
<g id="Group">
<g id="Group_2">
<path id="Vector" opacity="0.78" d="M96.5 81.087C96.5 81.9941 95.8528 83.1205 95.0661 83.5691L49.9289 109.656C49.1423 110.115 47.8478 110.115 47.0611 109.656L1.93388 83.5691C1.14724 83.1106 0.5 81.9941 0.5 81.087V28.913C0.5 28.0059 1.14724 26.8795 1.93388 26.4309L47.0611 0.343906C47.8478 -0.114635 49.1323 -0.114635 49.9289 0.343906L95.0661 26.4309C95.8528 26.8894 96.5 28.0059 96.5 28.913V81.087Z" fill="white"/>
<path id="Vector_2" d="M95.3248 80.4489C95.3248 81.336 94.6975 82.4325 93.9308 82.8712L49.8988 108.32C49.1321 108.759 47.8675 108.759 47.1008 108.32L3.06885 82.8712C2.30213 82.4226 1.6748 81.336 1.6748 80.4489V29.5508C1.6748 28.6636 2.30213 27.5671 3.06885 27.1285L47.1008 1.68946C47.8675 1.24088 49.1222 1.24088 49.8988 1.68946L93.9308 27.1385C94.6975 27.5871 95.3248 28.6736 95.3248 29.5608V80.4489Z" fill="#C31891"/>
<path id="Vector_3" opacity="0.5" d="M85.1479 74.6676L43.9937 101.741L30.3818 87.2875L73.3085 60.0342L85.1479 74.6676Z" fill="url(#paint0_linear_275_7871)"/>
<path id="Vector_4" opacity="0.5" d="M65.154 12.3652L71.3774 14.4785L76.4856 20.2103L78.0987 28.9325L74.1954 37.9438L17.4378 74.1686L8.14746 44.5927L56.1923 13.7309L65.154 12.3652Z" fill="url(#paint1_linear_275_7871)"/>
<g id="Group_3">
<g id="Group_4">
<path id="Vector_5" d="M64.0589 13.831C64.0589 12.9239 64.0589 12.4155 64.0589 12.4155H62.7744C62.7744 12.4155 62.7744 14.0503 62.7744 16.6919C62.7744 19.3335 62.7744 22.9819 62.7744 27.0091C62.7744 35.0635 62.7744 41.5927 62.7744 41.5927H64.0589V41.5827C64.0589 41.5827 64.0589 41.5827 64.0589 41.5728C64.0589 41.5728 64.0589 41.5728 64.0589 41.5628C64.0589 41.5628 64.0589 41.5628 64.0589 41.5528C64.0589 41.5528 64.0589 41.5528 64.0589 41.5428C64.0589 41.5428 64.0589 41.5428 64.0589 41.5329C64.0589 41.5329 64.0589 41.5329 64.0589 41.5229C64.0589 41.5229 64.0589 41.5229 64.0589 41.5129C64.0589 41.5129 64.0589 41.5129 64.0589 41.503C64.0589 41.503 64.0589 41.503 64.0589 41.493C64.0589 41.493 64.0589 41.493 64.0589 41.483C64.0589 41.4731 64.0589 41.4731 64.0589 41.4631C64.0589 41.4631 64.0589 41.4631 64.0589 41.4531C64.0589 41.4531 64.0589 41.4531 64.0589 41.4432C64.0589 41.4432 64.0589 41.4432 64.0589 41.4332C64.0589 41.4332 64.0589 41.4332 64.0589 41.4232C64.0589 41.4232 64.0589 41.4232 64.0589 41.4133C64.0589 41.4033 64.0589 41.4033 64.0589 41.3933C64.0589 41.3933 64.0589 41.3933 64.0589 41.3834C64.0589 41.3834 64.0589 41.3834 64.0589 41.3734V41.3634C64.0589 41.3634 64.0589 41.3634 64.0589 41.3535C64.0589 41.3535 64.0589 41.3535 64.0589 41.3435C64.0589 41.3335 64.0589 41.3235 64.0589 41.3136V41.3036V41.2936V41.2837V41.2737V41.2637C64.0589 41.2538 64.0589 41.2438 64.0589 41.2338V41.2239V41.2139V41.2039V41.194V41.184C64.0589 41.174 64.0589 41.1641 64.0589 41.1541V41.1441V41.1341V41.1242V41.1142V41.1042C64.0589 41.0943 64.0589 41.0843 64.0589 41.0644V41.0544C64.0589 41.0444 64.0589 41.0345 64.0589 41.0145V41.0046C64.0589 40.9946 64.0589 40.9747 64.0589 40.9647V40.9547V40.9448V40.9348V40.9248V40.9148C64.0589 40.9049 64.0589 40.8849 64.0589 40.875V40.865C64.0589 40.855 64.0589 40.8351 64.0589 40.8251C64.0589 40.8152 64.0589 40.8152 64.0589 40.8052C64.0589 40.7853 64.0589 40.7753 64.0589 40.7554C64.0589 40.7554 64.0589 40.7454 64.0589 40.7354C64.0589 40.7155 64.0589 40.7055 64.0589 40.6856C64.0589 40.6756 64.0589 40.6756 64.0589 40.6656C64.0589 40.6457 64.0589 40.6357 64.0589 40.6158C64.0589 40.6058 64.0589 40.6058 64.0589 40.5959C64.0589 40.5759 64.0589 40.566 64.0589 40.546C64.0589 40.5361 64.0589 40.5361 64.0589 40.5261C64.0589 40.5061 64.0589 40.4962 64.0589 40.4762C64.0589 40.4663 64.0589 40.4663 64.0589 40.4563C64.0589 40.4364 64.0589 40.4164 64.0589 40.4065C64.0589 40.3965 64.0589 40.3965 64.0589 40.3865C64.0589 40.3666 64.0589 40.3467 64.0589 40.3367C64.0589 40.3267 64.0589 40.3267 64.0589 40.3167C64.0589 40.2968 64.0589 40.2769 64.0589 40.2569C64.0589 40.247 64.0589 40.247 64.0589 40.237C64.0589 40.2171 64.0589 40.1971 64.0589 40.1772C64.0589 40.1672 64.0589 40.1672 64.0589 40.1573C64.0589 40.1373 64.0589 40.1174 64.0589 40.0974C64.0589 40.0875 64.0589 40.0875 64.0589 40.0775C64.0589 40.0576 64.0589 40.0376 64.0589 40.0177C64.0589 40.0077 64.0589 40.0077 64.0589 39.9978C64.0589 39.9479 64.0589 39.8981 64.0589 39.8482C64.0589 39.8383 64.0589 39.8383 64.0589 39.8283C64.0589 39.8084 64.0589 39.7884 64.0589 39.7685C64.0589 39.7585 64.0589 39.7585 64.0589 39.7486C64.0589 39.7286 64.0589 39.7087 64.0589 39.6887C64.0589 39.6788 64.0589 39.6788 64.0589 39.6688C64.0589 39.619 64.0589 39.5691 64.0589 39.5093C64.0589 39.4994 64.0589 39.4994 64.0589 39.4894C64.0589 39.4395 64.0589 39.3797 64.0589 39.3299C64.0589 39.3199 64.0589 39.31 64.0589 39.31C64.0589 39.2501 64.0589 39.2003 64.0589 39.1405C64.0589 39.1305 64.0589 39.1206 64.0589 39.1206C64.0589 39.0607 64.0589 39.0009 64.0589 38.9411C64.0589 38.9312 64.0589 38.9212 64.0589 38.9212C64.0589 38.8614 64.0589 38.8016 64.0589 38.7418C64.0589 38.7318 64.0589 38.7218 64.0589 38.7119C64.0589 38.5823 64.0589 38.4427 64.0589 38.3032C64.0589 38.2932 64.0589 38.2832 64.0589 38.2733C64.0589 35.6018 64.0589 31.5646 64.0589 27.039V13.831Z" fill="#BDDBE0"/>
</g>
<g id="Group_5">
<path id="Vector_6" d="M63.4225 42.2307C62.2375 42.2307 61.1323 41.7422 60.1763 40.9348C59.2204 40.1174 58.384 38.981 57.6969 37.6054C56.3228 34.8541 55.4963 31.116 55.4963 26.9991C55.5163 20.8287 57.3186 15.5157 60.1763 13.0635C61.1323 12.2461 62.2475 11.7676 63.4225 11.7676C64.6074 11.7676 65.7127 12.256 66.6686 13.0635C67.6245 13.8809 68.451 15.0172 69.148 16.3929C70.5222 19.1441 71.3486 22.8822 71.3486 26.9991C71.3287 33.1695 69.5264 38.4826 66.6686 40.9348C65.7127 41.7422 64.6074 42.2307 63.4225 42.2307ZM61.0028 14.0503C60.2162 14.7182 59.4694 15.715 58.842 16.971C57.5775 19.493 56.7709 23.0616 56.7709 26.9991C56.751 32.9103 58.613 37.9742 60.9929 39.9479C61.7795 40.6158 62.5861 40.9447 63.4125 40.9447C64.239 40.9447 65.0456 40.6158 65.8322 39.9479C66.6188 39.28 67.3557 38.2832 67.993 37.0272C69.2576 34.5052 70.0641 30.9366 70.0542 26.9991C70.0741 21.0879 68.212 16.024 65.8322 14.0503C65.0456 13.3824 64.239 13.0535 63.4125 13.0535C62.596 13.0635 61.7895 13.3924 61.0028 14.0503Z" fill="#BDDBE0"/>
</g>
<g id="Group_6">
<path id="Vector_7" d="M48.207 26.9991C48.207 18.5859 55.0179 11.7676 63.422 11.7676C71.8262 11.7676 78.6371 18.5859 78.6371 26.9991C78.6371 35.4123 71.8262 42.2307 63.422 42.2307C55.0179 42.2307 48.207 35.4123 48.207 26.9991ZM53.5741 17.1405C51.0549 19.6625 49.4915 23.1514 49.4915 26.9991C49.4915 30.8568 51.0549 34.3358 53.5741 36.8577C56.0933 39.3797 59.5785 40.9447 63.422 40.9447C67.2656 40.9447 70.7507 39.3897 73.27 36.8577C75.7892 34.3358 77.3526 30.8469 77.3526 26.9991C77.3526 23.1514 75.7892 19.6625 73.27 17.1405C70.7507 14.6185 67.2656 13.0535 63.422 13.0535C59.5685 13.0635 56.0933 14.6185 53.5741 17.1405Z" fill="#BDDBE0"/>
</g>
<g id="Group_7">
<path id="Vector_8" d="M63.4205 27.647C59.3977 27.647 55.7533 27.647 53.1145 27.647C50.4758 27.647 48.8527 27.647 48.8428 27.647V26.361C48.8428 26.361 50.4758 26.361 53.1145 26.361C55.7533 26.361 59.3977 26.361 63.4205 26.361C71.4662 26.361 77.9883 26.361 77.9883 26.361V27.009V27.647C77.9883 27.647 71.4662 27.647 63.4205 27.647Z" fill="#BDDBE0"/>
</g>
<path id="Vector_9" d="M74.0266 19.2737C74.4349 19.0644 74.8232 18.855 75.1817 18.6258C74.9427 18.2669 74.6938 17.918 74.4249 17.5791C71.8957 19.1342 67.9128 20.2008 63.4319 20.1908C59.4987 20.1908 55.9339 19.3834 53.4147 18.1274C53.116 17.9778 52.8272 17.8183 52.5583 17.6588C52.2895 17.9978 52.0405 18.3467 51.8115 18.7055C54.6295 20.43 58.7818 21.4667 63.4319 21.4767C67.5543 21.4767 71.2784 20.6493 74.0266 19.2737Z" fill="#BDDBE0"/>
<path id="Vector_10" d="M63.4616 32.4814C58.8015 32.4914 54.6393 33.5281 51.8213 35.2726C52.0503 35.6314 52.2992 35.9803 52.5681 36.3192C52.8469 36.1498 53.1357 35.9903 53.4444 35.8308C55.9636 34.5648 59.5184 33.7574 63.4616 33.7574C67.9524 33.7474 71.9553 34.824 74.4745 36.379C74.7434 36.0401 74.9923 35.6912 75.2213 35.3324C74.8529 35.1031 74.4646 34.8738 74.0464 34.6645C71.2981 33.3088 67.574 32.4914 63.4616 32.4814Z" fill="#BDDBE0"/>
</g>
<g id="Group_8">
<g id="Clip path group">
<mask id="mask0_275_7871" style="mask-type:luminance" maskUnits="userSpaceOnUse" x="1" y="1" width="95" height="108">
<g id="SVGID_4_">
<path id="Vector_11" d="M95.3248 80.4489C95.3248 81.336 94.6975 82.4325 93.9308 82.8712L49.8988 108.32C49.1321 108.759 47.8675 108.759 47.1008 108.32L3.06885 82.8712C2.30213 82.4226 1.6748 81.336 1.6748 80.4489V29.5508C1.6748 28.6636 2.30213 27.5671 3.06885 27.1285L47.1008 1.68946C47.8675 1.24088 49.1222 1.24088 49.8988 1.68946L93.9308 27.1385C94.6975 27.5871 95.3248 28.6736 95.3248 29.5608V80.4489Z" fill="white"/>
</g>
</mask>
<g mask="url(#mask0_275_7871)">
<path id="Vector_12" opacity="0.5" d="M28.6394 45.251L0.599113 61.2003L-3.63281 31.3851L12.4585 21.4966L28.6394 45.251Z" fill="url(#paint2_linear_275_7871)"/>
</g>
</g>
<g id="Clip path group_2">
<mask id="mask1_275_7871" style="mask-type:luminance" maskUnits="userSpaceOnUse" x="1" y="1" width="95" height="108">
<g id="SVGID_4__2">
<path id="Vector_13" d="M95.3248 80.4489C95.3248 81.336 94.6975 82.4325 93.9308 82.8712L49.8988 108.32C49.1321 108.759 47.8675 108.759 47.1008 108.32L3.06885 82.8712C2.30213 82.4226 1.6748 81.336 1.6748 80.4489V29.5508C1.6748 28.6636 2.30213 27.5671 3.06885 27.1285L47.1008 1.68946C47.8675 1.24088 49.1222 1.24088 49.8988 1.68946L93.9308 27.1385C94.6975 27.5871 95.3248 28.6736 95.3248 29.5608V80.4489Z" fill="white"/>
</g>
</mask>
<g mask="url(#mask1_275_7871)">
<path id="Vector_14" opacity="0.5" d="M15.615 68.9256L30.3023 57.8409L35.281 62.0774L35.9979 65.5164L41.136 61.9478L48.9725 72.7933L36.4062 82.2632L40.0108 84.8748L-1.81058 112.288L-18.7383 72.9129L14.7288 51.6904L15.615 68.9256Z" fill="url(#paint3_linear_275_7871)"/>
</g>
</g>
</g>
<path id="Vector_15" d="M47.2404 86.9986V86.251C47.3002 86.251 47.3599 86.251 47.4197 86.251C47.6885 86.251 47.9574 86.251 48.2262 86.241L48.2461 86.9886C47.9673 86.9986 47.6985 86.9986 47.4197 86.9986C47.3599 86.9986 47.3002 86.9986 47.2404 86.9986ZM44.2233 86.869L44.2831 86.1214C44.6117 86.1513 44.9403 86.1712 45.2689 86.1912L45.229 86.9388C44.8905 86.9189 44.5619 86.889 44.2233 86.869ZM50.1978 86.1513C50.5264 86.1214 50.855 86.1015 51.1836 86.0616L51.2633 86.8092C50.9347 86.8391 50.5961 86.869 50.2576 86.8989L50.1978 86.1513ZM41.2361 86.4902L41.3556 85.7526C41.6842 85.8024 42.0028 85.8522 42.3314 85.9021L42.2318 86.6397C41.8933 86.5999 41.5647 86.55 41.2361 86.4902ZM53.1353 85.8124C53.4639 85.7625 53.7825 85.7127 54.1011 85.6529L54.2306 86.3905C53.902 86.4504 53.5734 86.5102 53.2348 86.56L53.1353 85.8124ZM56.0329 85.2442C56.3515 85.1644 56.6702 85.0847 56.9888 85.0049L57.188 85.7326C56.8594 85.8223 56.5407 85.9021 56.2121 85.9818L56.0329 85.2442ZM35.391 85.0249L35.63 84.3171C35.9387 84.4268 36.2573 84.5265 36.566 84.6262L36.347 85.3439C36.0184 85.2342 35.6997 85.1345 35.391 85.0249ZM58.8708 84.4368C59.1795 84.3371 59.4981 84.2274 59.8068 84.1178L60.0557 84.8255C59.747 84.9352 59.4284 85.0448 59.0998 85.1545L58.8708 84.4368ZM32.5731 83.9383L32.8718 83.2505C33.1705 83.3801 33.4693 83.5097 33.7779 83.6293L33.4991 84.3271C33.1904 84.1975 32.8818 84.0679 32.5731 83.9383ZM61.6389 83.3901C61.9377 83.2605 62.2463 83.1309 62.5351 82.9914L62.8438 83.6692C62.5451 83.8088 62.2364 83.9483 61.9277 84.0779L61.6389 83.3901ZM29.8646 82.6026L30.2231 81.9447C30.5119 82.1042 30.8006 82.2537 31.0994 82.4032L30.7608 83.0711C30.4521 82.9216 30.1534 82.7621 29.8646 82.6026ZM64.3075 82.1141C64.5963 81.9547 64.8851 81.8051 65.1738 81.6357L65.5423 82.2836C65.2535 82.4531 64.9548 82.6126 64.666 82.772L64.3075 82.1141ZM27.2757 81.0376L27.6939 80.4195C27.9628 80.599 28.2416 80.7784 28.5204 80.9578L28.1221 81.5958C27.8433 81.4064 27.5645 81.217 27.2757 81.0376ZM66.8467 80.6089C67.1255 80.4295 67.3944 80.2401 67.6632 80.0607L68.0914 80.6687C67.8126 80.8581 67.5437 81.0475 67.255 81.2369L66.8467 80.6089ZM24.8461 79.2433L25.3141 78.6651C25.563 78.8745 25.8219 79.0738 26.0908 79.2732L25.6427 79.8713C25.3738 79.6619 25.105 79.4526 24.8461 79.2433ZM69.2465 78.8844C69.5053 78.6851 69.7543 78.4757 70.0032 78.2664L70.4812 78.8346C70.2223 79.0539 69.9634 79.2632 69.7045 79.4725L69.2465 78.8844ZM22.5957 77.2297L23.1234 76.7014C23.3525 76.9306 23.5914 77.1599 23.8304 77.3792L23.3226 77.9275C23.0737 77.6982 22.8347 77.4689 22.5957 77.2297ZM71.467 76.9406C71.7059 76.7113 71.935 76.4821 72.164 76.2428L72.7017 76.7711C72.4627 77.0104 72.2337 77.2496 71.9848 77.4789L71.467 76.9406ZM20.5445 75.0068L21.122 74.5283C21.3311 74.7775 21.5502 75.0267 21.7692 75.2759L21.2016 75.7643C20.9826 75.5151 20.7635 75.256 20.5445 75.0068ZM73.4883 74.7974C73.6974 74.5482 73.9066 74.299 74.1157 74.0398L74.7031 74.5083C74.494 74.7675 74.275 75.0267 74.0559 75.2859L73.4883 74.7974ZM18.7222 72.5745L19.3396 72.1558C19.5188 72.425 19.708 72.6941 19.8972 72.9633L19.2898 73.4019C19.1006 73.1327 18.9114 72.8536 18.7222 72.5745ZM75.2906 72.4648C75.4798 72.1957 75.6591 71.9266 75.8383 71.6474L76.4656 72.0462C76.2864 72.3253 76.0972 72.6144 75.908 72.8835L75.2906 72.4648ZM17.1788 69.9728L17.836 69.6239C17.9854 69.913 18.1447 70.202 18.304 70.4812L17.6568 70.85C17.4975 70.5709 17.3282 70.2718 17.1788 69.9728ZM76.834 69.9528C76.9934 69.6638 77.1427 69.3747 77.2821 69.0856L77.9493 69.4146C77.7999 69.7136 77.6506 70.0126 77.4813 70.3117L76.834 69.9528ZM15.9142 67.2215L16.6112 66.9524C16.7307 67.2614 16.8502 67.5605 16.9896 67.8595L16.3026 68.1586C16.1731 67.8396 16.0437 67.5305 15.9142 67.2215ZM78.0887 67.2913C78.2082 66.9923 78.3277 66.6832 78.4472 66.3742L79.1442 66.6234C79.0347 66.9424 78.9052 67.2514 78.7857 67.5704L78.0887 67.2913ZM14.9782 64.3407L15.7051 64.1513C15.7848 64.4703 15.8744 64.7793 15.974 65.0983L15.257 65.3176C15.1575 64.9886 15.0678 64.6697 14.9782 64.3407ZM79.0347 64.5102C79.1243 64.2011 79.2039 63.8822 79.2836 63.5532L80.0105 63.7227C79.9308 64.0516 79.8512 64.3806 79.7615 64.6996L79.0347 64.5102ZM14.3808 61.3701L15.1176 61.2705C15.1674 61.5994 15.2172 61.9184 15.2769 62.2374L14.5401 62.367C14.4803 62.038 14.4306 61.6991 14.3808 61.3701ZM79.662 61.6293C79.7118 61.3103 79.7516 60.9814 79.7914 60.6524L80.5283 60.7421C80.4884 61.0811 80.4486 61.41 80.3889 61.739L79.662 61.6293ZM14.1318 58.3498L14.8786 58.3298C14.8886 58.6588 14.8986 58.9877 14.9185 59.3167L14.1717 59.3665C14.1617 59.0276 14.1418 58.6887 14.1318 58.3498ZM79.9507 58.6986C79.9607 58.3697 79.9706 58.0407 79.9706 57.7118C79.9706 57.632 79.9706 57.5523 79.9706 57.4626L80.7175 57.4526C80.7175 57.5423 80.7175 57.6221 80.7175 57.7018C80.7175 58.0407 80.7075 58.3797 80.6975 58.7086L79.9507 58.6986ZM14.1617 56.3262C14.1816 55.9873 14.2015 55.6484 14.2314 55.3194L14.9782 55.3892C14.9484 55.7181 14.9284 56.0371 14.9085 56.3661L14.1617 56.3262ZM79.7615 54.5319L80.4984 54.4422C80.5382 54.7811 80.578 55.1101 80.6079 55.449L79.8611 55.5088C79.8412 55.1798 79.8014 54.8609 79.7615 54.5319ZM14.5003 53.3158C14.56 52.9769 14.6198 52.6479 14.6895 52.3189L15.4164 52.4784C15.3466 52.7974 15.2869 53.1164 15.2272 53.4454L14.5003 53.3158ZM79.2238 51.6411L79.9507 51.4617C80.0304 51.7906 80.1101 52.1196 80.1798 52.4485L79.4429 52.5981C79.3732 52.2791 79.3035 51.9601 79.2238 51.6411ZM15.1873 50.3552C15.2769 50.0262 15.3865 49.7073 15.4861 49.3883L16.193 49.6275C16.0835 49.9365 15.9939 50.2455 15.8943 50.5645L15.1873 50.3552ZM78.3575 48.83L79.0546 48.5709C79.174 48.8899 79.2836 49.1989 79.3832 49.5278L78.6762 49.7671C78.5766 49.4481 78.4671 49.1391 78.3575 48.83ZM16.2129 47.5043C16.3424 47.1952 16.4818 46.8862 16.6212 46.5772L17.2983 46.8962C17.1589 47.1952 17.0295 47.4943 16.9 47.7933L16.2129 47.5043ZM77.1726 46.1386L77.8397 45.7997C77.9891 46.0987 78.1385 46.3978 78.2878 46.7068L77.6107 47.0258C77.4614 46.7267 77.322 46.4277 77.1726 46.1386ZM17.5373 44.7829C17.6966 44.4938 17.8659 44.1948 18.0451 43.9157L18.6824 44.3044C18.5131 44.5836 18.3439 44.8627 18.1845 45.1518L17.5373 44.7829ZM75.6989 43.5768L76.3262 43.1681C76.5055 43.4472 76.6946 43.7363 76.8639 44.0253L76.2266 44.4141C76.0474 44.135 75.8781 43.8559 75.6989 43.5768ZM19.1604 42.231C19.3595 41.9619 19.5487 41.6928 19.7578 41.4236L20.3453 41.8722C20.1462 42.1314 19.957 42.4005 19.7678 42.6597L19.1604 42.231ZM73.9563 41.1943L74.5339 40.7258C74.743 40.985 74.9521 41.2542 75.1612 41.5233L74.5637 41.9719C74.3646 41.7127 74.1654 41.4535 73.9563 41.1943ZM21.0324 39.8586C21.2514 39.6094 21.4805 39.3602 21.7095 39.111L22.2571 39.6194C22.0381 39.8586 21.809 40.0978 21.5999 40.347L21.0324 39.8586ZM23.1334 37.6955C23.3823 37.4662 23.6313 37.2369 23.8802 37.0176L24.3681 37.5759C24.1192 37.7952 23.8802 38.0145 23.6412 38.2338L23.1334 37.6955ZM25.4336 35.7317C25.7024 35.5224 25.9713 35.323 26.2401 35.1237L26.6783 35.7317C26.4194 35.9211 26.1505 36.1205 25.8916 36.3199L25.4336 35.7317ZM27.903 33.9972C28.1818 33.8178 28.4706 33.6384 28.7594 33.4689L29.1378 34.1169C28.8589 34.2863 28.5801 34.4558 28.3013 34.6352L27.903 33.9972ZM30.5218 32.4821C30.8206 32.3325 31.1193 32.183 31.418 32.0335L31.7466 32.7113C31.4479 32.8509 31.1591 33.0004 30.8703 33.1499L30.5218 32.4821ZM33.2502 31.2061C33.5589 31.0765 33.8676 30.9569 34.1862 30.8373L34.455 31.5351C34.1464 31.6547 33.8377 31.7743 33.539 31.9039L33.2502 31.2061ZM36.0881 30.1694C36.4067 30.0697 36.7253 29.9701 37.0539 29.8803L37.2631 30.5981C36.9444 30.6878 36.6357 30.7875 36.3171 30.8871L36.0881 30.1694ZM38.9956 29.3819C39.3242 29.3121 39.6528 29.2324 39.9814 29.1726L40.1308 29.9102C39.8022 29.9701 39.4836 30.0398 39.1649 30.1196L38.9956 29.3819ZM41.963 28.8237C42.2916 28.7739 42.6301 28.734 42.9587 28.6941L43.0483 29.4318C42.7197 29.4716 42.3911 29.5115 42.0725 29.5614L41.963 28.8237ZM45.01 29.2623L44.9602 28.5147C45.2888 28.4947 45.6273 28.4748 45.9659 28.4648L45.9958 29.2125C45.6672 29.2224 45.3386 29.2424 45.01 29.2623Z" fill="white"/>
<g id="Group_9">
<path id="Vector_16" d="M88.1559 34.0267C87.7576 32.9502 87.429 32.0231 87.0008 31.3851C87.19 30.1491 87.2996 28.8831 87.2996 27.5872C87.2996 14.1799 76.5953 3.31445 63.3917 3.31445C50.1881 3.31445 39.4838 14.1799 39.4838 27.5872C39.4838 28.913 39.6033 30.2188 39.8024 31.4848C39.3842 32.1228 39.0556 33.0299 38.6673 34.0865C38.0997 35.6017 38.4681 42.9384 39.1552 43.9352C40.4198 45.7594 43.8551 47.1948 46.0457 47.4739C46.3146 47.773 46.7129 47.9524 47.151 47.9126C47.8779 47.8428 48.4057 47.2247 48.3459 46.527L47.1411 33.329C47.0714 32.6312 46.4341 32.1128 45.7172 32.1826C45.3886 32.2125 45.0998 32.362 44.8807 32.5813C44.7712 32.5714 44.6617 32.5514 44.5322 32.5415C43.8252 32.4916 42.72 31.6942 42.3117 30.8469C42.1524 29.7802 42.0628 28.6937 42.0628 27.5872C42.0628 15.6253 51.602 7.41142 63.3817 7.41142C75.1614 7.41142 84.7007 15.6353 84.7007 27.5872C84.7007 28.7037 84.611 29.8002 84.4418 30.8768C83.9937 31.6942 82.9482 32.4318 82.271 32.4817C82.1416 32.4916 82.0321 32.5016 81.9225 32.5215C81.7134 32.3022 81.4247 32.1527 81.0861 32.1228C80.3692 32.053 79.7219 32.5714 79.6622 33.2691L78.4872 46.4572C78.4275 47.155 78.9552 47.783 79.6821 47.8428C80.1202 47.8826 80.5285 47.7032 80.7874 47.4042C82.978 47.1251 86.4133 45.6896 87.6779 43.8654C88.365 42.8786 88.7235 35.5419 88.1559 34.0267Z" fill="#641265"/>
<path id="Vector_17" d="M86.9811 38.8815C85.5572 37.765 85.0792 38.8815 85.0792 38.8815C84.3225 40.2471 79.9014 46.4175 70.3422 49.1687C69.6949 48.441 68.4104 47.9327 66.9168 47.9327C64.766 47.9327 63.0234 48.9594 63.0234 50.2353C63.0234 51.5113 64.766 52.538 66.9168 52.538C69.0477 52.538 70.7803 51.5212 70.8002 50.2553C74.126 49.2684 82.4704 46.1483 86.9811 38.8815Z" fill="#641265"/>
</g>
<g id="Group_10">
<g id="Group_11">
<path id="Vector_18" d="M19.1201 60.7517C19.5184 61.5791 19.379 61.908 19.1898 62.0874C18.4231 62.8251 17.5468 63.7222 17.1187 65.1776C16.7403 66.4635 16.7901 67.9189 18.682 70.7299C20.6536 73.6506 24.8257 78.5052 26.4687 79.0136C28.1117 79.512 30.6807 78.0566 30.6807 78.0566C31.1388 77.7975 31.8657 77.8473 32.2939 78.1663L39.6425 83.8083C40.0706 84.1173 40.0906 84.6556 39.6823 84.9946C39.6823 84.9946 36.1175 87.9751 34.0265 88.4137C31.9354 88.8523 30.2127 88.6629 24.5569 83.7684C18.9011 78.884 12.6677 69.9823 10.6264 64.6393C8.6349 59.4159 8.36605 57.9008 10.8554 55.1694C12.9365 52.8767 14.5198 51.9098 14.5198 51.9098C14.9679 51.6307 15.5056 51.8101 15.7047 52.2986L19.1201 60.7517Z" fill="white"/>
</g>
<g id="Group_12">
<path id="Vector_19" d="M32.955 59.645L23.875 66.5469L26.1209 69.508L35.2009 62.6062L32.955 59.645Z" fill="white"/>
<path id="Vector_20" d="M38.458 57.8306L36.1379 65.7056L30.0938 57.731L38.458 57.8306Z" fill="white"/>
</g>
<g id="Group_13">
<path id="Vector_21" d="M54.8897 56.9898L42.2988 66.1479L45.278 70.2527L57.8689 61.0945L54.8897 56.9898Z" fill="#CEE6EF"/>
<path id="Vector_22" d="M37.7314 72.5839L41.1269 61.8979L49.1427 72.9428L37.7314 72.5839Z" fill="#CEE6EF"/>
</g>
</g>
<g id="Group_14">
<path id="Vector_23" d="M78.3572 58.5786C83.0571 58.5786 86.8708 61.6987 86.8708 65.5365C86.8708 67.5301 85.8452 69.3145 84.2022 70.5904L85.2079 74.787L81.9817 71.8364C80.8864 72.2551 79.6616 72.5043 78.3672 72.5043C73.6672 72.5043 69.8535 69.3842 69.8535 65.5464C69.8535 61.6987 73.6573 58.5786 78.3572 58.5786Z" fill="#F74D11"/>
<g id="Group_15">
<path id="Vector_24" d="M77.2613 64.1314C77.2613 63.6629 76.9726 63.2841 76.4149 63.2841C76.0266 63.2841 75.6781 63.4735 75.4092 63.7925L75.001 63.4137C75.3694 62.9951 75.8474 62.686 76.4647 62.686C77.3609 62.686 77.9583 63.2243 77.9583 64.0816C77.9583 65.2279 76.5543 65.6865 76.6937 66.9126H76.0664C75.8673 65.5569 77.2613 65.0585 77.2613 64.1314ZM76.395 67.6602C76.6838 67.6602 76.9228 67.8895 76.9228 68.2184C76.9228 68.5374 76.6838 68.7567 76.395 68.7567C76.1063 68.7567 75.8772 68.5274 75.8772 68.2184C75.8772 67.8895 76.1063 67.6602 76.395 67.6602Z" fill="white"/>
<path id="Vector_25" d="M79.6508 67.6599C79.9296 67.6599 80.1686 67.8892 80.1686 68.2182C80.1686 68.5371 79.9296 68.7564 79.6508 68.7564C79.362 68.7564 79.123 68.5272 79.123 68.2182C79.123 67.8892 79.3521 67.6599 79.6508 67.6599ZM79.2923 63.6128L79.2724 62.7954H79.9993L79.9794 63.6128L79.8798 66.9223H79.3819L79.2923 63.6128Z" fill="white"/>
</g>
</g>
<g id="Group_16">
<path id="Vector_26" d="M68.1903 80.9873C72.6943 80.9873 76.3455 78.3854 76.3455 75.1758C76.3455 71.9662 72.6943 69.3643 68.1903 69.3643C63.6864 69.3643 60.0352 71.9662 60.0352 75.1758C60.0352 78.3854 63.6864 80.9873 68.1903 80.9873Z" fill="#BDDBE0"/>
<g id="Group_17">
<path id="Vector_27" d="M67.9706 65.3271C61.9563 65.3271 57.0771 69.7331 57.0771 75.1758C57.0771 77.5383 58.0032 79.7114 59.5366 81.406L58.0132 86.5397L62.743 83.8083C64.2963 84.5759 66.0687 85.0145 67.9607 85.0145C73.975 85.0145 78.8442 80.6085 78.8442 75.1658C78.8541 69.7331 73.975 65.3271 67.9706 65.3271ZM63.908 71.039H71.7843C71.9237 71.039 72.0432 71.1586 72.0432 71.2981C72.0432 71.4377 71.9237 71.5573 71.7843 71.5573H63.908C63.7686 71.5573 63.6491 71.4377 63.6491 71.2981C63.6491 71.1586 63.7686 71.039 63.908 71.039ZM73.6862 77.7975H62.0061C61.797 77.7975 61.6178 77.6779 61.6178 77.5383C61.6178 77.3987 61.787 77.2791 62.0061 77.2791H73.6962C73.9053 77.2791 74.0845 77.3987 74.0845 77.5383C74.0746 77.6779 73.9053 77.7975 73.6862 77.7975ZM73.6862 76.063H62.0061C61.797 76.063 61.6178 75.9434 61.6178 75.8038C61.6178 75.6643 61.787 75.5446 62.0061 75.5446H73.6962C73.9053 75.5446 74.0845 75.6643 74.0845 75.8038C74.0746 75.9434 73.9053 76.063 73.6862 76.063ZM73.6862 74.159H62.0061C61.797 74.159 61.6178 74.0394 61.6178 73.8999C61.6178 73.7603 61.787 73.6407 62.0061 73.6407H73.6962C73.9053 73.6407 74.0845 73.7603 74.0845 73.8999C74.0746 74.0394 73.9053 74.159 73.6862 74.159Z" fill="#185F93"/>
<g id="Group_18">
<g id="Group_19">
<g id="Group_20">
<path id="Vector_28" d="M57.0762 75.1756C57.0762 77.5381 58.0022 79.7112 59.5357 81.4058L58.0122 86.5395L62.742 83.8082C64.2953 84.5757 66.0678 85.0143 67.9597 85.0143C67.9796 85.0143 67.9995 85.0143 68.0294 85.0143V77.7973H61.9952C61.7861 77.7973 61.6068 77.6777 61.6068 77.5381C61.6068 77.3986 61.7761 77.2789 61.9952 77.2789H68.0294V76.0628H61.9952C61.7861 76.0628 61.6068 75.9432 61.6068 75.8036C61.6068 75.6641 61.7761 75.5445 61.9952 75.5445H68.0294V74.1589H61.9952C61.7861 74.1589 61.6068 74.0392 61.6068 73.8997C61.6068 73.7601 61.7761 73.6405 61.9952 73.6405H68.0294V71.5671H63.907C63.7676 71.5671 63.6481 71.4475 63.6481 71.3079C63.6481 71.1684 63.7676 71.0488 63.907 71.0488H68.0294V65.3369C68.0095 65.3369 67.9896 65.3369 67.9597 65.3369C61.9553 65.327 57.0762 69.7329 57.0762 75.1756Z" fill="#641265"/>
</g>
</g>
</g>
</g>
</g>
<g id="Group_21">
<g id="Group_22">
<path id="Vector_29" d="M29.6855 15.0771H10.2485C9.4021 15.0771 8.70508 15.765 8.70508 16.6222V30.6077C9.17308 41.5728 19.2301 34.9539 19.2301 40.2271C19.2301 40.5162 19.2102 40.8053 19.1803 41.0844H21.3312L28.8789 45.6798L27.6641 41.0744H29.6855C30.5319 41.0744 31.2289 40.3866 31.2289 39.5293V16.6123C31.2189 15.765 30.5319 15.0771 29.6855 15.0771Z" fill="#FF8B0D"/>
</g>
<g id="Group_23">
<path id="Vector_30" d="M19.8475 15.0771H10.2485C9.4021 15.0771 8.70508 15.765 8.70508 16.6222V39.5294C8.70508 40.3767 9.39214 41.0744 10.2485 41.0744H19.7778C19.7479 40.7953 19.738 40.5062 19.738 40.2172L19.8475 15.0771Z" fill="#F74D11"/>
</g>
<g id="Group_24">
<path id="Vector_31" d="M20.8141 34.5653H18.2052V24.5073H20.8141V34.5653ZM21.0033 22.9623C21.0033 23.2513 20.8041 23.4009 20.4954 23.4009H18.5836C18.265 23.4009 18.0459 23.2314 18.0459 22.9623V21.5268C18.0459 21.2477 18.2251 21.0483 18.5836 21.0483H20.4954C20.834 21.0483 21.0033 21.2577 21.0033 21.5268V22.9623Z" fill="white"/>
</g>
</g>
</g>
</g>
<defs>
<linearGradient id="paint0_linear_275_7871" x1="38.8618" y1="93.4529" x2="83.0973" y2="66.9161" gradientUnits="userSpaceOnUse">
<stop offset="0.2033" stop-color="white"/>
<stop offset="0.3034" stop-color="#E6E6E6"/>
<stop offset="0.5169" stop-color="#A5A5A5"/>
<stop offset="0.8241" stop-color="#3E3E3E"/>
<stop offset="1"/>
</linearGradient>
<linearGradient id="paint1_linear_275_7871" x1="14.7174" y1="58.0044" x2="79.518" y2="18.9303" gradientUnits="userSpaceOnUse">
<stop offset="0.2033" stop-color="white"/>
<stop offset="0.3034" stop-color="#E6E6E6"/>
<stop offset="0.5169" stop-color="#A5A5A5"/>
<stop offset="0.8241" stop-color="#3E3E3E"/>
<stop offset="1"/>
</linearGradient>
<linearGradient id="paint2_linear_275_7871" x1="-3.96188" y1="48.8008" x2="22.7282" y2="32.7896" gradientUnits="userSpaceOnUse">
<stop offset="0.2033" stop-color="white"/>
<stop offset="0.3034" stop-color="#E6E6E6"/>
<stop offset="0.5169" stop-color="#A5A5A5"/>
<stop offset="0.8241" stop-color="#3E3E3E"/>
<stop offset="1"/>
</linearGradient>
<linearGradient id="paint3_linear_275_7871" x1="-8.93823" y1="91.6396" x2="43.424" y2="58.8989" gradientUnits="userSpaceOnUse">
<stop offset="0.2033" stop-color="white"/>
<stop offset="0.3034" stop-color="#E6E6E6"/>
<stop offset="0.5169" stop-color="#A5A5A5"/>
<stop offset="0.8241" stop-color="#3E3E3E"/>
<stop offset="1"/>
</linearGradient>
</defs>
</svg>
