<svg width="97" height="110" viewBox="0 0 97 110" fill="none" xmlns="http://www.w3.org/2000/svg">
<g id="Group">
<g id="Group_2">
<path id="Vector" opacity="0.78" d="M96.4901 81.087C96.4901 81.9941 95.8429 83.1205 95.0563 83.5691L49.9337 109.656C49.1472 110.115 47.8528 110.115 47.0663 109.656L1.93373 83.5691C1.14717 83.1106 0.5 81.9941 0.5 81.087V28.913C0.5 28.0059 1.14717 26.8795 1.93373 26.4309L47.0663 0.343906C47.8528 -0.114635 49.1372 -0.114635 49.9337 0.343906L95.0663 26.4309C95.8528 26.8894 96.5 28.0059 96.5 28.913V81.087H96.4901Z" fill="white"/>
<path id="Vector_2" d="M95.3159 80.4489C95.3159 81.336 94.6887 82.4325 93.922 82.8712L49.8946 108.32C49.128 108.759 47.8635 108.759 47.0969 108.32L3.07945 82.8712C2.3128 82.4226 1.68555 81.336 1.68555 80.4489V29.5608C1.68555 28.6736 2.3128 27.5771 3.07945 27.1385L47.1068 1.68946C47.8735 1.24088 49.128 1.24088 49.9046 1.68946L93.932 27.1385C94.6986 27.5871 95.3259 28.6736 95.3259 29.5608V80.4489H95.3159Z" fill="#C31891"/>
<path id="Vector_3" opacity="0.5" d="M88.7136 43.8952L83.7354 46.6365L81.9134 45.4403L85.7267 51.501L52.2432 70.5604L17.6445 27.6968L55.479 4.40088L88.7136 43.8952Z" fill="url(#paint0_linear_275_7785)"/>
<g id="Group_3">
<path id="Vector_4" d="M24.705 24.208C30.7537 24.208 35.6571 20.7135 35.6571 16.4028C35.6571 12.0921 30.7537 8.59766 24.705 8.59766C18.6563 8.59766 13.7529 12.0921 13.7529 16.4028C13.7529 20.7135 18.6563 24.208 24.705 24.208Z" fill="white"/>
<g id="Group_4">
<path id="Vector_5" d="M24.4063 3.18457C16.3316 3.18457 9.78027 9.10573 9.78027 16.4025C9.78027 19.5824 11.0248 22.4931 13.0858 24.7759L11.0348 31.6739L17.387 28.0056C19.4679 29.0423 21.8574 29.6304 24.3963 29.6304C32.471 29.6304 39.0124 23.7093 39.0124 16.4125C39.0223 9.10573 32.481 3.18457 24.4063 3.18457ZM18.9601 10.8502H29.5339C29.723 10.8502 29.8823 11.0097 29.8823 11.1991C29.8823 11.3885 29.723 11.548 29.5339 11.548H18.9601C18.7709 11.548 18.6116 11.3885 18.6116 11.1991C18.6116 11.0097 18.7709 10.8502 18.9601 10.8502ZM32.0927 19.9213H16.4013C16.1126 19.9213 15.8836 19.7618 15.8836 19.5724C15.8836 19.383 16.1126 19.2235 16.4013 19.2235H32.0927C32.3814 19.2235 32.6104 19.383 32.6104 19.5724C32.6104 19.7718 32.3714 19.9213 32.0927 19.9213ZM32.0927 17.5987H16.4013C16.1126 17.5987 15.8836 17.4392 15.8836 17.2498C15.8836 17.0604 16.1126 16.9009 16.4013 16.9009H32.0927C32.3814 16.9009 32.6104 17.0604 32.6104 17.2498C32.6104 17.4392 32.3714 17.5987 32.0927 17.5987ZM32.0927 15.0369H16.4013C16.1126 15.0369 15.8836 14.8774 15.8836 14.688C15.8836 14.4986 16.1126 14.3391 16.4013 14.3391H32.0927C32.3814 14.3391 32.6104 14.4986 32.6104 14.688C32.6104 14.8873 32.3714 15.0369 32.0927 15.0369Z" fill="#C01FE2"/>
<g id="Group_5">
<g id="Group_6">
<g id="Group_7">
<path id="Vector_6" d="M9.78125 16.4025C9.78125 19.5824 11.0258 22.4931 13.0868 24.7759L11.0358 31.6739L17.388 28.0056C19.4689 29.0423 21.8584 29.6304 24.3973 29.6304C24.4272 29.6304 24.457 29.6304 24.4869 29.6304V19.9313H16.3923C16.1036 19.9313 15.8746 19.7718 15.8746 19.5824C15.8746 19.393 16.1036 19.2335 16.3923 19.2335H24.4869V17.6087H16.3923C16.1036 17.6087 15.8746 17.4492 15.8746 17.2598C15.8746 17.0704 16.1036 16.9109 16.3923 16.9109H24.4869V15.0568H16.3923C16.1036 15.0568 15.8746 14.8973 15.8746 14.7079C15.8746 14.5185 16.1036 14.359 16.3923 14.359H24.4869V11.5679H18.9511C18.762 11.5679 18.6027 11.4084 18.6027 11.219C18.6027 11.0296 18.762 10.8701 18.9511 10.8701H24.4869V3.18457C24.457 3.18457 24.4272 3.18457 24.3973 3.18457C16.3326 3.18457 9.78125 9.10573 9.78125 16.4025Z" fill="#662D91"/>
</g>
</g>
</g>
</g>
</g>
<g id="Group_8">
<path id="Vector_7" d="M77.3036 10.252H67.0186V34.425H77.3036V10.252Z" fill="white"/>
<g id="Group_9">
<path id="Vector_8" d="M87.2792 3.89258H56.8225C55.4883 3.89258 54.413 4.96915 54.413 6.3049V28.2152C63.5331 28.3049 70.9009 35.0235 70.9009 43.2972C70.9009 43.7557 70.871 44.2043 70.8312 44.6429H74.1965L86.0148 51.84L84.1131 44.6429H87.2792C88.6134 44.6429 89.6887 43.5663 89.6887 42.2306V6.3049C89.6887 4.96915 88.6034 3.89258 87.2792 3.89258ZM74.1168 33.7077H70.6719V17.9479H74.1168V33.7077ZM74.3757 15.5256C74.3757 15.9741 74.1168 16.2134 73.7086 16.2134H71.1797C70.7615 16.2134 70.4728 15.9442 70.4728 15.5256V13.2727C70.4728 12.8242 70.7117 12.5351 71.1797 12.5351H73.6987C74.1467 12.5351 74.3657 12.864 74.3657 13.2727V15.5256H74.3757Z" fill="#FF8B0D"/>
<g id="Group_10">
<g id="Group_11">
<path id="Vector_9" d="M54.4023 6.3049V28.2152C63.5224 28.3049 70.8902 35.0235 70.8902 43.2972C70.8902 43.7557 70.8603 44.2043 70.8205 44.6429H72.4434V33.7077H70.6712V17.9479H72.4434V16.2134H71.1789C70.7608 16.2134 70.472 15.9442 70.472 15.5256V13.2727C70.472 12.8242 70.711 12.5351 71.1789 12.5351H72.4434V3.89258H56.8118C55.4876 3.89258 54.4023 4.96915 54.4023 6.3049Z" fill="#F74D11"/>
</g>
</g>
</g>
</g>
<path id="Vector_10" opacity="0.5" d="M33.2958 77.5879L37.7463 92.8892L59.7102 102.838L48.6386 108.819L12.2578 88.1742L29.8409 77.6577L33.2958 77.5879Z" fill="url(#paint1_linear_275_7785)"/>
<g id="Group_12">
<g id="Clip path group">
<mask id="mask0_275_7785" style="mask-type:luminance" maskUnits="userSpaceOnUse" x="1" y="1" width="95" height="108">
<g id="SVGID_4_">
<path id="Vector_11" d="M95.2856 80.4388C95.2856 81.326 94.6584 82.4225 93.8917 82.8611L49.8644 108.31C49.0977 108.749 47.8332 108.749 47.0666 108.31L3.04917 82.8611C2.28253 82.4125 1.65527 81.326 1.65527 80.4388V29.5408C1.65527 28.6536 2.28253 27.5571 3.04917 27.1185L47.0766 1.66944C47.8432 1.22086 49.1077 1.22086 49.8743 1.66944L93.9017 27.1185C94.6683 27.567 95.2956 28.6536 95.2956 29.5408V80.4388H95.2856Z" fill="white"/>
</g>
</mask>
<g mask="url(#mask0_275_7785)">
<path id="Vector_12" opacity="0.5" d="M23.9576 82.0339L3.04903 93.2482L-11.6367 73.3116L5.57797 61.25L23.9576 82.0339Z" fill="url(#paint2_linear_275_7785)"/>
</g>
</g>
<g id="Clip path group_2">
<mask id="mask1_275_7785" style="mask-type:luminance" maskUnits="userSpaceOnUse" x="1" y="1" width="95" height="108">
<g id="SVGID_4__2">
<path id="Vector_13" d="M95.2856 80.4388C95.2856 81.326 94.6584 82.4225 93.8917 82.8611L49.8644 108.31C49.0977 108.749 47.8332 108.749 47.0666 108.31L3.04917 82.8611C2.28253 82.4125 1.65527 81.326 1.65527 80.4388V29.5408C1.65527 28.6536 2.28253 27.5571 3.04917 27.1185L47.0766 1.66944C47.8432 1.22086 49.1077 1.22086 49.8743 1.66944L93.9017 27.1185C94.6683 27.567 95.2956 28.6536 95.2956 29.5408V80.4388H95.2856Z" fill="white"/>
</g>
</mask>
<g mask="url(#mask1_275_7785)">
<path id="Vector_14" opacity="0.5" d="M55.3698 29.3517L64.9977 34.3359L72.2958 44.8026L74.4563 70.5506L9.64985 111.132L-15.3408 59.6354L37.5378 28.7437L55.3698 29.3517Z" fill="url(#paint3_linear_275_7785)"/>
</g>
</g>
</g>
<g id="Group_13">
<g id="Group_14">
<path id="Vector_15" d="M29.7021 77.568V96.0891L46.3792 96.2785V77.4883L29.7021 77.568Z" fill="#BDDBE0"/>
</g>
<g id="Group_15">
<path id="Vector_16" d="M38.2745 81.4355H33.1768V81.7455H38.2745V81.4355Z" fill="white"/>
<path id="Vector_17" d="M38.2745 82.8311H33.1768V83.1411H38.2745V82.8311Z" fill="white"/>
<path id="Vector_18" d="M38.2745 84.2168H33.1768V84.5268H38.2745V84.2168Z" fill="white"/>
<path id="Vector_19" d="M38.2745 85.6123H33.1768V85.9223H38.2745V85.6123Z" fill="white"/>
<path id="Vector_20" d="M43.9895 87.0078H33.1768V87.3178H43.9895V87.0078Z" fill="white"/>
<path id="Vector_21" d="M43.9895 88.8623H33.1768V89.1723H43.9895V88.8623Z" fill="white"/>
</g>
</g>
<g id="Group_16">
<path id="Vector_22" opacity="0.5" d="M46.1898 84.0278L37.4381 94.8833L35.6858 96.229L29.7617 96.0296V87.6663L35.7256 84.0876L46.1898 84.0278Z" fill="url(#paint4_linear_275_7785)"/>
<g id="Group_17">
<path id="Vector_23" d="M35.576 84.0075V97.1955L38.8219 99.5879L40.5344 102.718H61.881V83.9277L35.576 84.0075Z" fill="white"/>
<g id="Group_18">
<path id="Vector_24" d="M35.5956 97.2255L40.5141 102.708L40.295 97.0361L35.5956 97.2255Z" fill="#BDDBE0"/>
</g>
</g>
<g id="Group_19">
<path id="Vector_25" d="M47.5147 87.0679H39.0518V87.3779H47.5147V87.0679Z" fill="#BDDBE0"/>
<path id="Vector_26" d="M47.5147 88.4536H39.0518V88.7636H47.5147V88.4536Z" fill="#BDDBE0"/>
<path id="Vector_27" d="M47.5147 89.8491H39.0518V90.1591H47.5147V89.8491Z" fill="#BDDBE0"/>
<path id="Vector_28" d="M47.5147 91.2344H39.0518V91.5444H47.5147V91.2344Z" fill="#BDDBE0"/>
</g>
<g id="Group_20">
<path id="Vector_29" d="M58.7652 87.0679H50.4316V87.3779H58.7652V87.0679Z" fill="#BDDBE0"/>
<path id="Vector_30" d="M58.7652 88.4536H50.4316V88.7636H58.7652V88.4536Z" fill="#BDDBE0"/>
<path id="Vector_31" d="M58.7652 89.8491H50.4316V90.1591H58.7652V89.8491Z" fill="#BDDBE0"/>
<path id="Vector_32" d="M58.7652 91.2344H50.4316V91.5444H58.7652V91.2344Z" fill="#BDDBE0"/>
</g>
<path id="Vector_33" d="M59.1528 93.4375H39.0508V93.7475H59.1528V93.4375Z" fill="#BDDBE0"/>
<path id="Vector_34" d="M59.1528 95.2915H39.0508V95.6015H59.1528V95.2915Z" fill="#BDDBE0"/>
</g>
<g id="Group_21">
<g id="Group_22">
<g id="Group_23">
<g id="Group_24">
<path id="Vector_35" d="M75.5213 59.1164C75.0931 57.9601 74.7347 56.9533 74.2668 56.2655C74.4758 54.9297 74.5953 53.5641 74.5953 52.1785C74.5953 37.7344 63.0658 26.0117 48.838 26.0117C34.6103 26.0117 23.0807 37.7245 23.0807 52.1785C23.0807 53.6139 23.2101 55.0194 23.4292 56.3851C22.9811 57.0729 22.6327 58.0498 22.2045 59.1862C21.5972 60.821 21.9855 68.7258 22.7322 69.8024C24.0863 71.7761 27.8001 73.3112 30.1498 73.6103C30.4385 73.9292 30.8766 74.1186 31.3445 74.0788C32.1211 74.009 32.6986 73.3411 32.6289 72.5835L31.3346 58.3588C31.2649 57.6012 30.5779 57.0529 29.8013 57.1227C29.4429 57.1526 29.1342 57.3221 28.9052 57.5514C28.7857 57.5414 28.6663 57.5215 28.5269 57.5115C27.7702 57.4517 26.5854 56.6143 26.1373 55.6973C25.9581 54.5509 25.8585 53.3747 25.8585 52.1685C25.8585 39.2795 36.1435 30.4177 48.8281 30.4177C61.5225 30.4177 71.7976 39.2795 71.7976 52.1685C71.7976 53.3846 71.698 54.5709 71.5188 55.7272C71.0309 56.6044 69.9158 57.3819 69.179 57.4417C69.0396 57.4517 68.9202 57.4617 68.8007 57.4816C68.5717 57.2523 68.263 57.0829 67.9046 57.0529C67.128 56.9832 66.441 57.5314 66.3713 58.289L65.077 72.5138C65.0073 73.2713 65.5847 73.9392 66.3613 74.009C66.8393 74.0489 67.2773 73.8595 67.5561 73.5405C69.9158 73.2414 73.6196 71.6964 74.9737 69.7226C75.7304 68.656 76.1286 60.7412 75.5213 59.1164Z" fill="white"/>
<path id="Vector_36" d="M74.2466 64.35C72.7133 63.1538 72.1955 64.35 72.1955 64.35C71.3791 65.8253 66.6199 72.4642 56.315 75.4347C55.6181 74.6472 54.2341 74.1089 52.6311 74.1089C50.3212 74.1089 48.4395 75.2154 48.4395 76.5911C48.4395 77.9567 50.3113 79.0732 52.6311 79.0732C54.9311 79.0732 56.7929 77.9667 56.8128 76.611C60.3872 75.5344 69.3878 72.1851 74.2466 64.35Z" fill="white"/>
</g>
<g id="Group_25">
<path id="Vector_37" d="M35.7451 42.5597C37.5174 42.2806 39.1303 42.1211 41.4203 42.1211C44.1981 42.1211 45.373 44.0848 45.373 46.238C45.373 49.5176 40.9424 52.9865 39.668 53.9534H45.373V55.987H35.8845V54.0631C37.7364 52.8071 43.1925 48.74 43.1925 46.238C43.1925 44.9521 42.5255 44.1746 40.8826 44.1746H35.7451V42.5597Z" fill="#BDDBE0"/>
<path id="Vector_38" d="M50.6205 42.3003H53.0498L48.4599 50.7036H52.5421V47.3143L53.1693 45.8889H54.7126V50.7036H56.1961V52.3982L54.7126 52.8168V55.9469H52.5421V52.8168H45.9907L45.3535 51.8001L50.6205 42.3003Z" fill="#BDDBE0"/>
</g>
<g id="Group_26">
<path id="Vector_39" d="M58.416 42.2798H59.8298V46.0777C60.4372 45.679 61.0246 45.2503 62.0103 45.2503C63.444 45.2503 63.9717 46.2771 63.9717 47.4533V51.8493H62.5579V47.4434C62.5579 46.7356 62.2094 46.4565 61.7016 46.4565C60.9051 46.4565 60.4969 46.6559 59.8398 47.0646V51.8493H58.426V42.2798H58.416Z" fill="#BDDBE0"/>
</g>
</g>
</g>
<g id="Group_27">
<path id="Vector_40" d="M23.0807 52.1792C23.0807 53.6146 23.2101 55.0201 23.4292 56.3858C22.9811 57.0736 22.6327 58.0505 22.2045 59.1869C21.5972 60.8217 21.9855 68.7265 22.7322 69.8031C24.0863 71.7768 27.8001 73.3119 30.1498 73.611C30.4385 73.9299 30.8766 74.1193 31.3445 74.0795C32.1211 74.0097 32.6986 73.3418 32.6289 72.5842L31.3346 58.3595C31.2649 57.6019 30.5779 57.0536 29.8013 57.1234C29.4429 57.1533 29.1342 57.3228 28.9052 57.5521C28.7857 57.5421 28.6663 57.5222 28.5269 57.5122C27.7702 57.4524 26.5854 56.615 26.1373 55.698C25.9581 54.5516 25.8585 53.3753 25.8585 52.1692C25.8585 39.2802 36.1435 30.4184 48.8281 30.4184C49.077 30.4184 49.3358 30.4284 49.5847 30.4383V26.0224C49.3358 26.0124 49.0869 26.0024 48.8281 26.0024C34.6103 26.0124 23.0807 37.7251 23.0807 52.1792Z" fill="#BDDBE0"/>
</g>
</g>
<g id="Group_28">
<g id="Group_29">
<g id="Group_30">
<path id="Vector_41" d="M5.60742 61.4794V76.0331L9.19174 78.6746L11.0735 82.1237H24.0169V61.3896L5.60742 61.4794Z" fill="white"/>
<g id="Group_31">
<path id="Vector_42" d="M5.62695 76.0629L11.0532 82.1136L10.8043 75.8535L5.62695 76.0629Z" fill="#BDDBE0"/>
</g>
</g>
<g id="Group_32">
<path id="Vector_43" d="M15.0658 65.7461H9.44043V66.085H15.0658V65.7461Z" fill="#BDDBE0"/>
<path id="Vector_44" d="M15.0658 67.2812H9.44043V67.6202H15.0658V67.2812Z" fill="#BDDBE0"/>
<path id="Vector_45" d="M15.0658 68.8164H9.44043V69.1553H15.0658V68.8164Z" fill="#BDDBE0"/>
<path id="Vector_46" d="M15.0658 70.3516H9.44043V70.6905H15.0658V70.3516Z" fill="#BDDBE0"/>
<path id="Vector_47" d="M21.3682 71.8867H9.44043V72.2256H21.3682V71.8867Z" fill="#BDDBE0"/>
<path id="Vector_48" d="M21.3682 73.9399H9.44043V74.2789H21.3682V73.9399Z" fill="#BDDBE0"/>
</g>
</g>
</g>
</g>
</g>
<defs>
<linearGradient id="paint0_linear_275_7785" x1="35.9418" y1="49.4467" x2="78.1577" y2="23.0022" gradientUnits="userSpaceOnUse">
<stop offset="0.2033" stop-color="white"/>
<stop offset="0.3034" stop-color="#E6E6E6"/>
<stop offset="0.5169" stop-color="#A5A5A5"/>
<stop offset="0.8241" stop-color="#3E3E3E"/>
<stop offset="1"/>
</linearGradient>
<linearGradient id="paint1_linear_275_7785" x1="24.6674" y1="105.513" x2="44.3961" y2="88.1089" gradientUnits="userSpaceOnUse">
<stop offset="0.2033" stop-color="white"/>
<stop offset="0.3034" stop-color="#E6E6E6"/>
<stop offset="0.5169" stop-color="#A5A5A5"/>
<stop offset="0.8241" stop-color="#3E3E3E"/>
<stop offset="1"/>
</linearGradient>
<linearGradient id="paint2_linear_275_7785" x1="1.35793" y1="82.97" x2="15.0659" y2="67.8678" gradientUnits="userSpaceOnUse">
<stop offset="0.2033" stop-color="white"/>
<stop offset="0.3034" stop-color="#E6E6E6"/>
<stop offset="0.5169" stop-color="#A5A5A5"/>
<stop offset="0.8241" stop-color="#3E3E3E"/>
<stop offset="1"/>
</linearGradient>
<linearGradient id="paint3_linear_275_7785" x1="3.57216" y1="96.0959" x2="63.8409" y2="28.0753" gradientUnits="userSpaceOnUse">
<stop offset="0.2033" stop-color="white"/>
<stop offset="0.2806" stop-color="#F9F9F9"/>
<stop offset="0.3795" stop-color="#EAEAEA"/>
<stop offset="0.4901" stop-color="#CFCFCF"/>
<stop offset="0.6093" stop-color="#ABABAB"/>
<stop offset="0.7354" stop-color="#7B7B7B"/>
<stop offset="0.8674" stop-color="#424242"/>
<stop offset="1"/>
</linearGradient>
<linearGradient id="paint4_linear_275_7785" x1="30.7982" y1="94.0313" x2="38.8887" y2="86.0849" gradientUnits="userSpaceOnUse">
<stop offset="0.0165" stop-color="white"/>
<stop offset="0.4457" stop-color="#8A8A8A"/>
<stop offset="0.8294" stop-color="#272727"/>
<stop offset="1"/>
</linearGradient>
</defs>
</svg>
